<svg xmlns="http://www.w3.org/2000/svg" viewBox="0 0 621.5 451.37"><defs><style>.cls-1,.cls-12{fill:#ccc;}.cls-1,.cls-12,.cls-2{stroke:#ccc;stroke-miterlimit:10;}.cls-1,.cls-2{stroke-width:2px;}.cls-2{fill:none;}.cls-3{fill:#e6e6e6;}.cls-4,.cls-6{fill:#353c46;}.cls-5{fill:#ffadc2;}.cls-6{font-size:12px;font-family:ProximaNova-Bold, Proxima Nova;font-weight:700;}.cls-7{letter-spacing:-0.03em;}.cls-8{letter-spacing:-0.01em;}.cls-9{letter-spacing:0em;}.cls-10{letter-spacing:-0.01em;}.cls-11{letter-spacing:-0.1em;}</style></defs><title>Asset 4</title><g id="Layer_2" data-name="Layer 2"><g id="Layer_1-2" data-name="Layer 1"><line class="cls-1" x1="18.57" y1="59.38" x2="617" y2="59.38"/><line class="cls-1" x1="19.51" y1="218.88" x2="617" y2="218.88"/><line class="cls-1" x1="25" y1="349.74" x2="448" y2="349.74"/><line class="cls-2" x1="63.57" y1="442.72" x2="230" y2="442.72"/><line class="cls-2" x1="63.57" y1="122.72" x2="230" y2="122.72"/><line class="cls-1" x1="65.02" y1="379.5" x2="65.02" y2="122.5"/><line class="cls-1" x1="63.74" y1="443.5" x2="63.74" y2="302.44"/><line class="cls-1" x1="229.12" y1="442.5" x2="229.12" y2="320.5"/><line class="cls-1" x1="230" y1="243.5" x2="230" y2="121.5"/><line class="cls-2" x1="562.28" y1="186.87" x2="562.28" y2="59.44"/><rect class="cls-3" x="1.38" y="26.88" width="123.25" height="64.25"/><path class="cls-4" d="M124.25,27.25v63.5H1.75V27.25h122.5m.75-.75H1v65H125v-65Z"/><rect class="cls-3" x="167.71" y="26.88" width="123.25" height="64.25"/><path class="cls-4" d="M290.58,27.25v63.5H168.08V27.25h122.5m.75-.75h-124v65h124v-65Z"/><rect class="cls-3" x="334.04" y="26.88" width="123.25" height="64.25"/><path class="cls-4" d="M456.92,27.25v63.5H334.42V27.25h122.5m.75-.75h-124v65h124v-65Z"/><rect class="cls-3" x="330.88" y="185.88" width="123.25" height="64.25"/><path class="cls-4" d="M453.75,186.25v63.5H331.25v-63.5h122.5m.75-.75h-124v65h124v-65Z"/><rect class="cls-3" x="497.38" y="185.88" width="123.25" height="64.25"/><path class="cls-4" d="M620.25,186.25v63.5H497.75v-63.5h122.5m.75-.75H497v65H621v-65Z"/><rect class="cls-3" x="168.88" y="317.88" width="123.25" height="64.25"/><path class="cls-4" d="M291.75,318.25v63.5H169.25v-63.5h122.5m.75-.75h-124v65h124v-65Z"/><rect class="cls-3" x="335.38" y="317.88" width="123.25" height="64.25"/><path class="cls-4" d="M458.25,318.25v63.5H335.75v-63.5h122.5m.75-.75H335v65H459v-65Z"/><rect class="cls-5" x="21.78" y="308.28" width="83.44" height="83.44" transform="translate(-228.89 147.41) rotate(-45)"/><rect class="cls-5" x="188.78" y="178.28" width="83.44" height="83.44" transform="translate(-88.05 227.42) rotate(-45)"/><rect class="cls-5" x="520.78" y="17.28" width="83.44" height="83.44" transform="translate(123.03 415.03) rotate(-45)"/><text class="cls-6" transform="translate(29.99 55.51)">Cont<tspan class="cls-7" x="26.14" y="0">e</tspan><tspan x="32.36" y="0">xtual </tspan><tspan x="12.16" y="14.4">Inquiry</tspan></text><text class="cls-6" transform="translate(366.99 61.71)">Interviews</text><path class="cls-4" d="M535.45,205.31h3.74a2.57,2.57,0,1,1,0,5.13h-2v2.87h-1.7Zm3.51,1.46h-1.81V209H539a1.09,1.09,0,0,0,1.18-1.1A1.1,1.1,0,0,0,539,206.77Z"/><path class="cls-4" d="M542.9,207.52h1.53v.79a2.44,2.44,0,0,1,1.84-.93v1.49a2.42,2.42,0,0,0-.42,0,1.92,1.92,0,0,0-1.42.64v3.83H542.9Z"/><path class="cls-4" d="M546.85,210.41a3.07,3.07,0,1,1,3.06,3A2.93,2.93,0,0,1,546.85,210.41Zm4.55,0a1.5,1.5,0,1,0-1.49,1.69A1.53,1.53,0,0,0,551.4,210.41Z"/><path class="cls-4" d="M554.11,205.31h1.52v2.95a2.24,2.24,0,0,1,1.79-.89c1.48,0,2.57,1.15,2.57,3s-1.11,3-2.57,3a2.28,2.28,0,0,1-1.79-.87v.73h-1.52Zm2.83,6.79a1.7,1.7,0,0,0,0-3.37,1.71,1.71,0,0,0-1.31.67v2A1.72,1.72,0,0,0,556.94,212.1Z"/><path class="cls-4" d="M561.14,205.31h1.53v8h-1.53Z"/><path class="cls-4" d="M566.8,207.37a2.91,2.91,0,0,1,2.91,3.19v.34H565.4a1.57,1.57,0,0,0,1.67,1.34,2.39,2.39,0,0,0,1.55-.57l.67,1a3.58,3.58,0,0,1-2.39.8,3,3,0,0,1-.1-6.08Zm-1.42,2.5h2.85a1.34,1.34,0,0,0-1.43-1.29A1.39,1.39,0,0,0,565.38,209.87Z"/><path class="cls-4" d="M578,209.65c0-.54-.24-.92-.87-.92a1.53,1.53,0,0,0-1.19.67v3.91H574.4v-3.66c0-.54-.24-.92-.86-.92a1.56,1.56,0,0,0-1.2.68v3.9h-1.53v-5.79h1.53v.75a2.51,2.51,0,0,1,1.89-.9,1.54,1.54,0,0,1,1.61,1.06,2.46,2.46,0,0,1,2-1.06,1.55,1.55,0,0,1,1.7,1.75v4.19H578Z"/><path class="cls-4" d="M581,214.41a2,2,0,0,0,.92-1.11,1.07,1.07,0,0,1-.23,0,.82.82,0,0,1-.81-.87,1,1,0,0,1,.93-1,1.11,1.11,0,0,1,1.08,1.22,2.78,2.78,0,0,1-1.24,2.23Z"/><path class="cls-4" d="M504.06,219.71h3.75a2.57,2.57,0,1,1,0,5.13h-2v2.87h-1.71Zm3.52,1.46h-1.81v2.21h1.81a1.09,1.09,0,0,0,1.17-1.1A1.1,1.1,0,0,0,507.58,221.17Z"/><path class="cls-4" d="M513.94,221.77a2.9,2.9,0,0,1,2.9,3.19v.34h-4.3a1.55,1.55,0,0,0,1.66,1.34,2.37,2.37,0,0,0,1.55-.57l.67,1a3.55,3.55,0,0,1-2.38.8,3,3,0,1,1-.1-6.08Zm-1.43,2.5h2.86a1.35,1.35,0,0,0-1.43-1.29A1.39,1.39,0,0,0,512.51,224.27Z"/><path class="cls-4" d="M518,221.92h1.52v.79a2.48,2.48,0,0,1,1.85-.93v1.49a2.42,2.42,0,0,0-.42,0,1.94,1.94,0,0,0-1.43.64v3.83H518Z"/><path class="cls-4" d="M522.42,225.89a3.37,3.37,0,0,0,2,.79c.66,0,1-.23,1-.59s-.5-.55-1.16-.68c-1-.2-2.28-.44-2.28-1.81,0-1,.85-1.83,2.37-1.83a3.7,3.7,0,0,1,2.33.79l-.6,1.05a2.46,2.46,0,0,0-1.72-.67c-.55,0-.91.2-.91.53s.46.5,1.11.63c1,.19,2.32.45,2.32,1.89,0,1.07-.9,1.86-2.5,1.86a3.86,3.86,0,0,1-2.59-.9Z"/><path class="cls-4" d="M527.62,224.81a3.07,3.07,0,1,1,3.06,3A2.93,2.93,0,0,1,527.62,224.81Zm4.55,0a1.5,1.5,0,1,0-1.49,1.69A1.53,1.53,0,0,0,532.17,224.81Z"/><path class="cls-4" d="M538.79,224.21c0-.81-.42-1.08-1.07-1.08a1.65,1.65,0,0,0-1.32.68v3.9h-1.52v-5.79h1.52v.75a2.68,2.68,0,0,1,2-.9,1.68,1.68,0,0,1,1.88,1.85v4.09h-1.52Z"/><path class="cls-4" d="M545.31,227.11a2.4,2.4,0,0,1-1.84.74,1.93,1.93,0,0,1-2-1.92,1.83,1.83,0,0,1,2-1.84,2.38,2.38,0,0,1,1.84.7V224c0-.59-.51-1-1.27-1a2.48,2.48,0,0,0-1.7.68l-.57-1a3.82,3.82,0,0,1,2.53-.91c1.32,0,2.53.53,2.53,2.2v3.74h-1.52Zm0-1.51a1.54,1.54,0,0,0-1.23-.51c-.6,0-1.09.33-1.09.88s.49.85,1.09.85a1.57,1.57,0,0,0,1.23-.5Z"/><path class="cls-4" d="M558.3,227.71h-1.94l-.6-.6a3.53,3.53,0,0,1-2.17.74c-1.48,0-2.65-.76-2.65-2.31a2.57,2.57,0,0,1,1.72-2.32,3.78,3.78,0,0,1-.52-1.71,2.06,2.06,0,0,1,2.27-1.92c1.14,0,2.12.62,2.12,1.69,0,1.22-1,1.74-2,2.19.24.33.48.63.68.87s.46.55.69.81a6.66,6.66,0,0,0,.73-1.54l1.22.56a10.78,10.78,0,0,1-1.11,1.93C557.25,226.62,557.75,227.15,558.3,227.71Zm-3.36-1.48c-.36-.39-.69-.76-.89-1s-.53-.69-.8-1.06a1.45,1.45,0,0,0-.69,1.22,1.21,1.21,0,0,0,1.23,1.26A1.85,1.85,0,0,0,554.94,226.23Zm-.93-3.62c.67-.31,1.18-.66,1.18-1.25a.65.65,0,0,0-.69-.67.82.82,0,0,0-.84.85A2.28,2.28,0,0,0,554,222.61Z"/><path class="cls-4" d="M562.66,225.29a3.53,3.53,0,0,0,2.54,1.08c.94,0,1.39-.45,1.39-.9,0-.6-.69-.81-1.62-1-1.3-.3-3-.66-3-2.45,0-1.33,1.15-2.41,3-2.41a4.42,4.42,0,0,1,3.12,1.12l-.95,1.24a3.39,3.39,0,0,0-2.29-.87c-.77,0-1.17.33-1.17.81s.67.71,1.59.93c1.32.3,3,.69,3,2.47,0,1.46-1,2.56-3.2,2.56a4.61,4.61,0,0,1-3.4-1.27Z"/><path class="cls-4" d="M572.14,221.77a2.67,2.67,0,0,1,2.29,1.06l-1,.92a1.43,1.43,0,0,0-1.22-.62,1.69,1.69,0,0,0,0,3.37,1.44,1.44,0,0,0,1.22-.63l1,.93a2.67,2.67,0,0,1-2.29,1,3,3,0,1,1,0-6.08Z"/><path class="cls-4" d="M578.05,221.77A2.91,2.91,0,0,1,581,225v.34h-4.31a1.56,1.56,0,0,0,1.67,1.34,2.39,2.39,0,0,0,1.55-.57l.67,1a3.58,3.58,0,0,1-2.39.8,3,3,0,0,1-.1-6.08Zm-1.42,2.5h2.85a1.34,1.34,0,0,0-1.43-1.29A1.39,1.39,0,0,0,576.63,224.27Z"/><path class="cls-4" d="M586,224.21c0-.81-.42-1.08-1.06-1.08a1.64,1.64,0,0,0-1.32.68v3.9h-1.53v-5.79h1.53v.75a2.66,2.66,0,0,1,2-.9,1.69,1.69,0,0,1,1.89,1.85v4.09H586Z"/><path class="cls-4" d="M592.49,227.11a2.39,2.39,0,0,1-1.83.74,1.93,1.93,0,0,1-2-1.92,1.83,1.83,0,0,1,2-1.84,2.36,2.36,0,0,1,1.83.7V224c0-.59-.5-1-1.27-1a2.46,2.46,0,0,0-1.69.68l-.58-1a3.82,3.82,0,0,1,2.53-.91c1.32,0,2.53.53,2.53,2.2v3.74h-1.52Zm0-1.51a1.51,1.51,0,0,0-1.22-.51c-.6,0-1.09.33-1.09.88s.49.85,1.09.85a1.53,1.53,0,0,0,1.22-.5Z"/><path class="cls-4" d="M595.53,221.92h1.52v.79a2.48,2.48,0,0,1,1.85-.93v1.49a2.42,2.42,0,0,0-.42,0,1.92,1.92,0,0,0-1.43.64v3.83h-1.52Z"/><path class="cls-4" d="M599.69,220.15a.92.92,0,0,1,1.83,0,.92.92,0,0,1-1.83,0Zm.16,1.77h1.52v5.79h-1.52Z"/><path class="cls-4" d="M602.51,224.81a3.07,3.07,0,1,1,3.06,3A2.93,2.93,0,0,1,602.51,224.81Zm4.55,0a1.5,1.5,0,1,0-1.49,1.69A1.53,1.53,0,0,0,607.06,224.81Z"/><path class="cls-4" d="M609.93,225.89a3.34,3.34,0,0,0,2,.79c.66,0,1-.23,1-.59s-.5-.55-1.16-.68c-1-.2-2.28-.44-2.28-1.81,0-1,.85-1.83,2.37-1.83a3.66,3.66,0,0,1,2.33.79l-.6,1.05a2.46,2.46,0,0,0-1.71-.67c-.56,0-.91.2-.91.53s.45.5,1.1.63c1,.19,2.33.45,2.33,1.89,0,1.07-.9,1.86-2.51,1.86a3.86,3.86,0,0,1-2.59-.9Z"/><text class="cls-6" transform="translate(352.91 213.31)">How might we<tspan x="12.61" y="14.4">questions</tspan></text><text class="cls-6" transform="translate(212.25 354.33)">Iterate</text><rect class="cls-3" x="0.38" y="185.88" width="123.25" height="64.25"/><path class="cls-4" d="M123.25,186.25v63.5H.75v-63.5h122.5m.75-.75H0v65H124v-65Z"/><text class="cls-6" transform="translate(30.33 215.13)">Wireframes<tspan x="-0.99" y="14.4">&amp; Prototype</tspan></text><text class="cls-6" transform="translate(357.18 353.13)">Mid-fi Designs</text><text class="cls-6" transform="translate(187.97 222.31)">Design <tspan class="cls-8" x="41.05" y="0">S</tspan><tspan class="cls-9" x="48.12" y="0">tudio</tspan></text><text class="cls-6" transform="translate(549.15 54.31)">Data<tspan class="cls-10" x="-13.33" y="14.4">S</tspan><tspan x="-6.21" y="14.4">ynthesis</tspan></text><text class="cls-6" transform="translate(50.3 347.13)">User<tspan class="cls-11" x="-6.91" y="14.4">T</tspan><tspan x="-1.1" y="14.4">esting</tspan></text><text class="cls-6" transform="translate(196.01 55.51)">Competitive<tspan x="10.32" y="14.4">Analysis</tspan></text><polygon class="cls-12" points="153.7 349 140.7 341.49 140.7 356.51 153.7 349"/><polygon class="cls-12" points="159.7 123 146.7 115.49 146.7 130.51 159.7 123"/><polygon class="cls-12" points="140.7 443 153.7 435.49 153.7 450.51 140.7 443"/><polygon class="cls-12" points="141.7 219 154.7 211.49 154.7 226.51 141.7 219"/></g></g></svg>