<?xml version="1.0" encoding="UTF-8"?>
<svg width="50px" height="50px" viewBox="0 0 50 50" version="1.1" xmlns="http://www.w3.org/2000/svg" xmlns:xlink="http://www.w3.org/1999/xlink">
    <!-- Generator: Sketch 53.2 (72643) - https://sketchapp.com -->
    <title>dance</title>
    <desc>Created with Sketch.</desc>
    <g id="Page-1" stroke="none" stroke-width="1" fill="none" fill-rule="evenodd">
        <g id="Desktop-HD-Copy" transform="translate(-284.000000, -1090.000000)" fill-rule="nonzero">
            <g id="dance" transform="translate(284.000000, 1090.000000)">
                <circle id="Oval" fill="#FFB398" cx="8.47457627" cy="19.4915254" r="4.23728814"></circle>
                <path d="M11.8644068,11.0169492 L11.8644068,11.0169492 C11.8644068,8.20868644 9.58792373,5.93220339 6.77966102,5.93220339 L6.77966102,5.93220339 C9.58792373,5.93220339 11.8644068,3.65572034 11.8644068,0.847457627 L11.8644068,0.847457627 C11.8644068,3.65572034 14.1408898,5.93220339 16.9491525,5.93220339 L16.9491525,5.93220339 C14.1408898,5.93220339 11.8644068,8.20868644 11.8644068,11.0169492 Z" id="Path" fill="#FECC91"></path>
                <path d="M34.7457627,47.4576271 L34.7457627,47.4576271 C34.7457627,44.6493644 32.4692797,42.3728814 29.6610169,42.3728814 L29.6610169,42.3728814 C32.4692797,42.3728814 34.7457627,40.0963983 34.7457627,37.2881356 L34.7457627,37.2881356 C34.7457627,40.0963983 37.0222458,42.3728814 39.8305085,42.3728814 L39.8305085,42.3728814 C37.0222458,42.3728814 34.7457627,44.6493644 34.7457627,47.4576271 Z" id="Path" fill="#FECC91"></path>
                <path d="M2.54237288,23.5727029 L2.54237288,23.5727029 C1.60625,23.5727029 0.847457627,24.3115271 0.847457627,25.2230152 L0.847457627,30.9991079 C0.847457627,31.910596 1.60625,32.6494202 2.54237288,32.6494202 L6.77966102,32.6494202 C7.7157839,32.6494202 8.47457627,31.910596 8.47457627,30.9991079 L8.47457627,30.9991079 C8.47457627,30.0876199 7.7157839,29.3487957 6.77966102,29.3487957 L4.23728814,29.3487957 L4.23728814,32.6494202 L4.23728814,36.091662 C4.23728814,36.5293042 4.41588983,36.9491024 4.73368644,37.258639 L8.47457627,40.9009813 L8.47457627,47.5022302 C8.47457627,48.4137182 9.23336864,49.1525424 10.1694915,49.1525424 L10.1694915,49.1525424 C11.1056144,49.1525424 11.8644068,48.4137182 11.8644068,47.5022302 L11.8644068,39.9342077 C11.8644068,39.4965656 11.6858051,39.0767674 11.3680085,38.7672307 L9.3220339,36.7752007 L11.8644068,34.2997324 L15.2542373,37.6003568 L15.2542373,44.2016057 C15.2542373,45.1130938 16.0130297,45.8519179 16.9491525,45.8519179 L16.9491525,45.8519179 C17.8852754,45.8519179 18.6440678,45.1130938 18.6440678,44.2016057 L18.6440678,36.6335833 C18.6440678,36.1959411 18.4654661,35.776143 18.1476695,35.4666063 L13.559322,30.9991079 L13.559322,26.8733274 L20.3389831,26.8733274 C21.2751059,26.8733274 22.0338983,26.1345032 22.0338983,25.2230152 L22.0338983,19.4469224 C22.0338983,18.5354343 21.2751059,17.7966102 20.3389831,17.7966102 L20.3389831,17.7966102 C19.4028602,17.7966102 18.6440678,18.5354343 18.6440678,19.4469224 L18.6440678,23.5727029 L13.559322,23.5727029 L2.54237288,23.5727029 Z" id="Path" fill="#B09C9B"></path>
                <circle id="Oval" fill="#FFB398" cx="38.1355932" cy="5.08474576" r="4.23728814"></circle>
                <g id="Group" transform="translate(7.627119, 3.389831)">
                    <path d="M34.8813559,5.89013103 L39.8644068,5.89013103 C40.7818072,5.89013103 41.5254237,6.64354189 41.5254237,7.5730256 L41.5254237,12.6217093 C41.5254237,13.5511931 40.7818072,14.3046039 39.8644068,14.3046039 L39.8644068,14.3046039 C38.9470064,14.3046039 38.2033898,13.5511931 38.2033898,12.6217093 L38.2033898,9.25592018 L34.8813559,9.25592018 L34.8813559,18.6562538 C34.8813559,19.1025364 34.7063263,19.5306227 34.3948856,19.8462706 L31.559322,22.7190768 L35.3678263,26.5777437 C36.0164534,27.2349141 36.0164534,28.3005019 35.3678263,28.9576722 L35.2252903,29.1020856 C34.5766631,29.7592559 33.524928,29.7592559 32.8763008,29.1020856 L27.750714,23.9089885 C27.1020869,23.2518181 27.1020869,22.1862303 27.750714,21.52906 L29.8983051,19.3532877 L27.4067797,16.8289458 L24.0847458,20.1947349 L24.0847458,26.9263133 C24.0847458,27.855797 23.3411292,28.6092078 22.4237288,28.6092078 L22.4237288,28.6092078 C21.5063284,28.6092078 20.7627119,27.855797 20.7627119,26.9263133 L20.7627119,19.2088743 C20.7627119,18.7625917 20.9377415,18.3345053 21.2491822,18.0188574 L25.7457627,13.4631566 L25.7457627,9.25592018 L20.7627119,9.25592018 C19.8453114,9.25592018 19.1016949,8.50250932 19.1016949,7.5730256 L19.1016949,1.68289458 C19.1016949,0.753410867 19.8453114,0 20.7627119,0 L20.7627119,0 C21.6801123,0 22.4237288,0.753410867 22.4237288,1.68289458 L22.4237288,5.89013103 L25.7457627,5.89013103 L34.8813559,5.89013103 Z" id="Path" fill="#FFADC2"></path>
                    <rect id="Rectangle" fill="#F40E34" x="29.8983051" y="0.841447289" width="1.66101695" height="2.52434187"></rect>
                    <path d="M2.49152542,17.6703931 L0,17.6703931 L0,15.9874985 L1.66101695,15.9874985 L1.66101695,14.3046039 L3.3220339,14.3046039 L3.3220339,16.8289458 C3.3220339,17.2936351 2.95058898,17.6703931 2.49152542,17.6703931 Z" id="Path" fill="#F40E34"></path>
                </g>
                <path d="M8.47457627,24.5762712 C11.2784958,24.5762712 13.559322,22.2954449 13.559322,19.4915254 C13.559322,16.6876059 11.2784958,14.4067797 8.47457627,14.4067797 C5.67065678,14.4067797 3.38983051,16.6876059 3.38983051,19.4915254 C3.38983051,22.2954449 5.67065678,24.5762712 8.47457627,24.5762712 Z M8.47457627,16.1016949 C10.3440678,16.1016949 11.8644068,17.6223517 11.8644068,19.4915254 C11.8644068,21.3606992 10.3440678,22.8813559 8.47457627,22.8813559 C6.60508475,22.8813559 5.08474576,21.3606992 5.08474576,19.4915254 C5.08474576,17.6223517 6.60508475,16.1016949 8.47457627,16.1016949 Z" id="Shape" fill="#000000"></path>
                <path d="M6.77966102,6.77966102 C9.11599576,6.77966102 11.0169492,8.68061441 11.0169492,11.0169492 C11.0169492,11.4849576 11.3959746,11.8644068 11.8644068,11.8644068 C12.332839,11.8644068 12.7118644,11.4849576 12.7118644,11.0169492 C12.7118644,8.68061441 14.6128178,6.77966102 16.9491525,6.77966102 C17.4175847,6.77966102 17.7966102,6.40021186 17.7966102,5.93220339 C17.7966102,5.46419492 17.4175847,5.08474576 16.9491525,5.08474576 C14.6128178,5.08474576 12.7118644,3.18379237 12.7118644,0.847457627 C12.7118644,0.379449153 12.332839,0 11.8644068,0 C11.3959746,0 11.0169492,0.379449153 11.0169492,0.847457627 C11.0169492,3.18379237 9.11599576,5.08474576 6.77966102,5.08474576 C6.31122881,5.08474576 5.93220339,5.46419492 5.93220339,5.93220339 C5.93220339,6.40021186 6.31122881,6.77966102 6.77966102,6.77966102 Z M11.8644068,3.90042373 C12.3651483,4.73177966 13.0652542,5.43103814 13.8961864,5.93220339 C13.0652542,6.43326271 12.3651483,7.13262712 11.8644068,7.96398305 C11.3636653,7.13262712 10.6635593,6.43326271 9.83262712,5.93220339 C10.6635593,5.43114407 11.3636653,4.73177966 11.8644068,3.90042373 Z" id="Shape" fill="#000000"></path>
                <path d="M39.8305085,41.5254237 C37.4941737,41.5254237 35.5932203,39.6244703 35.5932203,37.2881356 C35.5932203,36.8201271 35.2141949,36.440678 34.7457627,36.440678 C34.2773305,36.440678 33.8983051,36.8201271 33.8983051,37.2881356 C33.8983051,39.6244703 31.9973517,41.5254237 29.6610169,41.5254237 C29.1925847,41.5254237 28.8135593,41.9048729 28.8135593,42.3728814 C28.8135593,42.8408898 29.1925847,43.220339 29.6610169,43.220339 C31.9973517,43.220339 33.8983051,45.1212924 33.8983051,47.4576271 C33.8983051,47.9256356 34.2773305,48.3050847 34.7457627,48.3050847 C35.2141949,48.3050847 35.5932203,47.9256356 35.5932203,47.4576271 C35.5932203,45.1212924 37.4941737,43.220339 39.8305085,43.220339 C40.2989407,43.220339 40.6779661,42.8408898 40.6779661,42.3728814 C40.6779661,41.9048729 40.2989407,41.5254237 39.8305085,41.5254237 Z M34.7457627,44.404661 C34.2450212,43.5733051 33.5449153,42.8740466 32.7139831,42.3728814 C33.5449153,41.871822 34.2450212,41.1724576 34.7457627,40.3411017 C35.2465042,41.1724576 35.9466102,41.8717161 36.7775424,42.3728814 C35.9466102,42.8739407 35.2465042,43.5733051 34.7457627,44.404661 Z" id="Shape" fill="#000000"></path>
                <path d="M19.5856874,16.9491525 C18.2357031,16.9491525 17.1374765,18.061107 17.1374765,19.4279661 L17.1374765,22.7330508 L13.0571249,22.7330508 L13.0571249,24.3855932 L17.9535468,24.3855932 C18.4046296,24.3855932 18.7696171,24.0156303 18.7696171,23.559322 L18.7696171,19.4279661 C18.7696171,18.9724841 19.1354206,18.6016949 19.5856874,18.6016949 C20.0359542,18.6016949 20.4017577,18.9724841 20.4017577,19.4279661 L20.4017577,25.2118644 C20.4017577,25.6673464 20.0359542,26.0381356 19.5856874,26.0381356 L13.0571249,26.0381356 C12.6060421,26.0381356 12.2410546,26.4080985 12.2410546,26.8644068 L12.2410546,30.9957627 C12.2410546,31.2148279 12.32715,31.4250106 12.4801632,31.5799364 L16.8984699,36.0534719 C17.0522991,36.2096372 17.1375785,36.4173411 17.1375785,36.6380588 L17.1375785,44.2161017 C17.1375785,44.6715837 16.771775,45.0423729 16.3215082,45.0423729 C15.8712414,45.0423729 15.5054379,44.6715837 15.5054379,44.2161017 L15.5054379,37.6059322 C15.5054379,37.3868671 15.4193424,37.1766843 15.2663293,37.0217585 L12.002048,33.7166737 C11.6832706,33.3939115 11.1668001,33.3939115 10.8480226,33.7166737 L8.39981168,36.1954873 C8.08103421,36.5182495 8.08103421,37.0411758 8.39981168,37.363938 L10.3699074,39.35866 C10.5237367,39.5148252 10.609016,39.7225291 10.609016,39.9432468 L10.609016,47.5211864 C10.609016,47.9766684 10.2432125,48.3474576 9.7929457,48.3474576 C9.34267891,48.3474576 8.97687539,47.9766684 8.97687539,47.5211864 L8.97687539,40.9110169 C8.97687539,40.6919518 8.89077997,40.4817691 8.73776679,40.3268432 L5.13553045,36.6795789 C4.98170119,36.5234137 4.89642185,36.3157097 4.89642185,36.0949921 L4.89642185,33.4745763 L6.52856246,33.4745763 C7.87854677,33.4745763 8.97677338,32.3626218 8.97677338,30.9957627 C8.97677338,29.6289036 7.87854677,28.5169492 6.52856246,28.5169492 L4.89642185,28.5169492 L4.89642185,26.0381356 L3.26428123,26.0381356 L3.26428123,29.3432203 C3.26428123,29.7995286 3.62926868,30.1694915 4.08035154,30.1694915 L6.52856246,30.1694915 C6.97882925,30.1694915 7.34463277,30.5402807 7.34463277,30.9957627 C7.34463277,31.4512447 6.97882925,31.8220339 6.52856246,31.8220339 L2.44821092,31.8220339 C1.99794413,31.8220339 1.63214062,31.4512447 1.63214062,30.9957627 L1.63214062,25.2118644 C1.63214062,24.7563824 1.99794413,24.3855932 2.44821092,24.3855932 L2.44821092,22.7330508 C1.09822662,22.7330508 0,23.8450053 0,25.2118644 L0,30.9957627 C0,32.3626218 1.09822662,33.4745763 2.44821092,33.4745763 L3.26428123,33.4745763 L3.26428123,36.0949921 C3.26428123,36.7570418 3.5193032,37.379947 3.98150502,37.8480297 L7.34463277,41.2531965 L7.34463277,47.5211864 C7.34463277,48.8880456 8.44285938,50 9.79284369,50 C11.142828,50 12.2410546,48.8880456 12.2410546,47.5211864 L12.2410546,39.9431435 C12.2410546,39.2810937 11.9860326,38.6581886 11.5238308,38.1901059 L10.1307988,36.779661 L11.4249843,35.4692982 L13.8731952,37.9481118 L13.8731952,44.2161017 C13.8731952,45.5829608 14.9714218,46.6949153 16.3214062,46.6949153 C17.6713905,46.6949153 18.7696171,45.5829608 18.7696171,44.2161017 L18.7696171,36.6380588 C18.7696171,35.976009 18.5145951,35.3531038 18.0523933,34.8850212 L13.8731952,30.6536864 L13.8731952,27.690678 L19.5856874,27.690678 C20.9356717,27.690678 22.0338983,26.5787235 22.0338983,25.2118644 L22.0338983,19.4279661 C22.0338983,18.061107 20.9356717,16.9491525 19.5856874,16.9491525 Z" id="Path" fill="#000000"></path>
                <path d="M38.1355932,10.1694915 C40.9395127,10.1694915 43.220339,7.88866525 43.220339,5.08474576 C43.220339,2.28082627 40.9395127,0 38.1355932,0 C35.3316737,0 33.0508475,2.28082627 33.0508475,5.08474576 C33.0508475,7.88866525 35.3316737,10.1694915 38.1355932,10.1694915 Z M38.1355932,1.69491525 C40.0050847,1.69491525 41.5254237,3.21557203 41.5254237,5.08474576 C41.5254237,6.95391949 40.0050847,8.47457627 38.1355932,8.47457627 C36.2661017,8.47457627 34.7457627,6.95391949 34.7457627,5.08474576 C34.7457627,3.21557203 36.2661017,1.69491525 38.1355932,1.69491525 Z" id="Shape" fill="#000000"></path>
                <path d="M47.5452951,8.44744486 L42.6358854,8.44744486 L42.6358854,10.1346083 L47.5452951,10.1346083 C47.9967563,10.1346083 48.3635301,10.5131656 48.3635301,10.97819 L48.3635301,16.0396803 C48.3635301,16.5047047 47.9967563,16.883262 47.5452951,16.883262 C47.093834,16.883262 46.7270602,16.5047047 46.7270602,16.0396803 L46.7270602,12.6653534 C46.7270602,12.1994854 46.3611046,11.8217717 45.9088252,11.8217717 L42.6358854,11.8217717 C42.1836061,11.8217717 41.8176505,12.1994854 41.8176505,12.6653534 L41.8176505,22.0893211 C41.8176505,22.3146628 41.7321449,22.5267182 41.5779077,22.6861551 L38.7843513,25.5662485 C38.4647282,25.8957726 38.4647282,26.4296544 38.7843513,26.7591785 L42.5367767,30.6281606 C42.6918323,30.7871757 42.7765196,30.9989147 42.7765196,31.2241511 C42.7765196,31.4493874 42.6918323,31.6612318 42.5367767,31.8205633 L42.3961426,31.9651321 C42.0765196,32.2946563 41.5586791,32.2942345 41.2390561,31.9655539 L36.1890123,26.7586513 C36.0339568,26.5996361 35.9492694,26.3878971 35.9492694,26.1626608 C35.9492694,25.9374245 36.0339568,25.72558 36.1890123,25.5662485 L38.3049679,23.3847462 C38.6245909,23.0552221 38.6245909,22.5213403 38.3049679,22.1918162 L35.850263,19.6610711 C35.53064,19.331547 35.0127995,19.331547 34.6931765,19.6610711 L31.4202367,23.0353979 C31.2668177,23.1935695 31.1804939,23.4081556 31.1804939,23.6318102 L31.1804939,30.3804639 C31.1804939,30.8454883 30.81372,31.2240456 30.3622589,31.2240456 C29.9107978,31.2240456 29.544024,30.8454883 29.544024,30.3804639 L29.544024,22.6436597 C29.544024,22.4183179 29.6295295,22.2062626 29.7837668,22.0468256 L34.2137931,17.4795688 C34.3672122,17.3213972 34.4535359,17.1068111 34.4535359,16.8831565 L34.4535359,12.665248 C34.4535359,12.19938 34.0875804,11.8216663 33.635301,11.8216663 L28.7258913,11.8216663 C28.2744302,11.8216663 27.9076563,11.443109 27.9076563,10.9780845 L27.9076563,5.07311801 C27.9076563,4.6080936 28.2744302,4.2295363 28.7258913,4.2295363 C29.1773524,4.2295363 29.5441262,4.6080936 29.5441262,5.07311801 L29.5441262,9.29102657 C29.5441262,9.75689457 29.9100818,10.1346083 30.3623612,10.1346083 L33.635301,10.1346083 L33.635301,8.44744486 L31.1805961,8.44744486 L31.1805961,5.07311801 C31.1805961,3.67762297 30.0794565,2.54237288 28.7258913,2.54237288 C27.3723261,2.54237288 26.2711864,3.67762297 26.2711864,5.07311801 L26.2711864,10.97819 C26.2711864,12.373685 27.3723261,13.5089351 28.7258913,13.5089351 L32.817066,13.5089351 L32.817066,16.5340191 L28.6267826,20.8541065 C28.1633548,21.3318901 27.9076563,21.9678453 27.9076563,22.6437651 L27.9076563,30.3805693 C27.9076563,31.7760644 29.008796,32.9113145 30.3623612,32.9113145 C31.7159264,32.9113145 32.817066,31.7760644 32.817066,30.3805693 L32.817066,23.9811585 L35.2717709,21.4504134 L36.5694915,22.7883339 L35.0321303,24.3728967 C34.5687025,24.8511021 34.3130041,25.4867409 34.3130041,26.1626608 C34.3130041,26.8385806 34.5687025,27.4742195 35.0321303,27.9520031 L40.0821742,33.1589057 C40.5608416,33.6515574 41.1888369,33.8983051 41.8177528,33.8983051 C42.4458504,33.8983051 43.0746639,33.6515574 43.5533314,33.1584839 L43.6939655,33.0139151 C44.1573933,32.5357097 44.4130918,31.9000709 44.4130918,31.2241511 C44.4130918,30.5482312 44.1573933,29.9125924 43.6939655,29.4348088 L40.5200321,26.1626608 L42.7349942,23.8790851 C43.198422,23.4013015 43.4541204,22.7652409 43.4541204,22.0893211 L43.4541204,13.5089351 L45.0905903,13.5089351 L45.0905903,16.0396803 C45.0905903,17.4351753 46.19173,18.5704254 47.5452951,18.5704254 C48.8988603,18.5704254 50,17.4351753 50,16.0396803 L50,10.97819 C50,9.58269495 48.8988603,8.44744486 47.5452951,8.44744486 Z" id="Path" fill="#000000"></path>
                <rect id="Rectangle" fill="#000000" x="37.2881356" y="4.23728814" width="1.69491525" height="2.54237288"></rect>
                <path d="M11.0169492,20.3389831 L11.0169492,17.7966102 L9.3220339,17.7966102 L9.3220339,19.4915254 L7.62711864,19.4915254 L7.62711864,21.1864407 L10.1694915,21.1864407 C10.6379237,21.1864407 11.0169492,20.8069915 11.0169492,20.3389831 Z" id="Path" fill="#000000"></path>
            </g>
        </g>
    </g>
</svg>