<svg xmlns="http://www.w3.org/2000/svg" viewBox="0 0 545 276.43"><defs><style>.cls-1{fill:#404752;stroke:#999;stroke-dasharray:4;}.cls-1,.cls-4,.cls-5,.cls-6,.cls-7,.cls-8{stroke-miterlimit:10;}.cls-2{font-size:16px;fill:#e6e6e6;font-family:Lato-Bold, Lato;font-weight:700;}.cls-3{letter-spacing:-0.02em;}.cls-4,.cls-5,.cls-6,.cls-7,.cls-8{fill:none;}.cls-4,.cls-5,.cls-6,.cls-7,.cls-8,.cls-9{stroke:#b3b3b3;stroke-linecap:round;}.cls-5{stroke-dasharray:3 3;}.cls-6{stroke-dasharray:4.08 4.08;}.cls-7{stroke-dasharray:4 4;}.cls-8{stroke-dasharray:2.67 2.67;}.cls-10,.cls-9{fill:#b3b3b3;}.cls-9{stroke-linejoin:round;}.cls-10{font-size:14px;font-family:Lato-Regular, Lato;}</style></defs><title>Asset 4</title><g id="Layer_2" data-name="Layer 2"><g id="Layer_1-2" data-name="Layer 1"><polygon class="cls-1" points="134.5 1.21 22.78 112.93 134.5 224.65 134.5 1.21"/><polygon class="cls-1" points="411.96 1.21 523.68 112.93 411.96 224.65 411.96 1.21"/><polygon class="cls-1" points="392.5 1.21 280.78 112.93 392.5 224.65 392.5 1.21"/><polygon class="cls-1" points="155.5 1.21 267.22 112.93 155.5 224.65 155.5 1.21"/><text class="cls-2" transform="translate(57.44 107.82)">Disc<tspan class="cls-3" x="30.92" y="0">ov</tspan><tspan x="48.02" y="0">er</tspan></text><text class="cls-2" transform="translate(241.51 267.82)">Measure</text><text class="cls-2" transform="translate(177.61 107.82)">Define</text><text class="cls-2" transform="translate(316.22 107.82)">D<tspan class="cls-3" x="11.96" y="0">ev</tspan><tspan x="28.52" y="0">elop</tspan></text><text class="cls-2" transform="translate(431.55 107.82)">Deli<tspan class="cls-3" x="29.18" y="0">v</tspan><tspan x="37.46" y="0">er</tspan></text><line class="cls-4" x1="531.5" y1="112.93" x2="533.5" y2="112.93"/><line class="cls-5" x1="536.5" y1="112.93" x2="541" y2="112.93"/><polyline class="cls-4" points="542.5 112.93 544.5 112.93 544.5 114.93"/><line class="cls-6" x1="544.5" y1="119.01" x2="544.5" y2="271.89"/><polyline class="cls-4" points="544.5 273.93 544.5 275.93 542.5 275.93"/><line class="cls-7" x1="538.5" y1="275.93" x2="4.5" y2="275.93"/><polyline class="cls-4" points="2.5 275.93 0.5 275.93 0.5 273.93"/><line class="cls-6" x1="0.5" y1="269.85" x2="0.5" y2="116.97"/><polyline class="cls-4" points="0.5 114.93 0.5 112.93 2.5 112.93"/><line class="cls-8" x1="5.17" y1="112.93" x2="9.17" y2="112.93"/><line class="cls-4" x1="10.5" y1="112.93" x2="12.5" y2="112.93"/><polygon class="cls-9" points="14 117.38 18.05 113.32 14 109.27 14 117.38"/><text class="cls-10" transform="translate(52.07 124.77)">Understand</text><text class="cls-10" transform="translate(175.39 125.25)">Problem</text><text class="cls-10" transform="translate(324.89 125.25)">Create</text><text class="cls-10" transform="translate(438.09 125.25)">Refine</text></g></g></svg>