<svg xmlns="http://www.w3.org/2000/svg" viewBox="0 0 470.9 223.45"><defs><style>.cls-1{fill:#fecc91;}.cls-2,.cls-3{fill:#353c46;}.cls-3,.cls-9{font-size:16px;font-family:Lato-Bold, Lato;font-weight:700;}.cls-4{letter-spacing:-0.01em;}.cls-5{letter-spacing:0em;}.cls-6{letter-spacing:-0.01em;}.cls-7{letter-spacing:-0.02em;}.cls-8{letter-spacing:-0.02em;}.cls-9{fill:#fff;}.cls-10{letter-spacing:-0.01em;}.cls-11{letter-spacing:-0.01em;}.cls-12{letter-spacing:-0.01em;}.cls-13{letter-spacing:-0.02em;}</style></defs><title>Asset 1</title><g id="Layer_2" data-name="Layer 2"><g id="Layer_1-2" data-name="Layer 1"><polygon class="cls-1" points="111.72 0 0 111.72 111.72 223.45 111.72 0"/><polygon class="cls-2" points="359.18 0 470.9 111.72 359.18 223.45 359.18 0"/><polygon class="cls-2" points="349.72 0 238 111.72 349.72 223.45 349.72 0"/><polygon class="cls-2" points="122.72 0 234.45 111.72 122.72 223.45 122.72 0"/><text class="cls-3" transform="translate(35.22 116.61)"><tspan class="cls-4">D</tspan><tspan class="cls-5" x="12.03" y="0">is</tspan><tspan class="cls-6" x="23.13" y="0">c</tspan><tspan class="cls-7" x="30.7" y="0">ov</tspan><tspan x="47.82" y="0">e</tspan><tspan class="cls-8" x="56.37" y="0">r</tspan></text><text class="cls-9" transform="translate(144.39 116.61)"><tspan class="cls-10">D</tspan><tspan class="cls-11" x="12.06" y="0">e</tspan><tspan x="20.49" y="0">fine</tspan></text><text class="cls-9" transform="translate(273.53 116.61)"><tspan class="cls-10">D</tspan><tspan class="cls-12" x="12.06" y="0">e</tspan><tspan class="cls-7" x="20.4" y="0">v</tspan><tspan x="28.59" y="0">elop</tspan></text><text class="cls-9" transform="translate(379.53 116.61)"><tspan class="cls-10">D</tspan><tspan x="12.06" y="0">eli</tspan><tspan class="cls-13" x="28.65" y="0">v</tspan><tspan x="36.84" y="0">e</tspan><tspan class="cls-8" x="45.38" y="0">r</tspan></text></g></g></svg>