<?xml version="1.0" encoding="UTF-8"?>
<svg width="40px" height="54px" viewBox="0 0 40 54" version="1.1" xmlns="http://www.w3.org/2000/svg" xmlns:xlink="http://www.w3.org/1999/xlink">
    <!-- Generator: Sketch 53.2 (72643) - https://sketchapp.com -->
    <title>think</title>
    <desc>Created with Sketch.</desc>
    <g id="Page-1" stroke="none" stroke-width="1" fill="none" fill-rule="evenodd">
        <g id="Desktop-HD-Copy" transform="translate(-289.000000, -956.000000)" fill-rule="nonzero">
            <g id="think" transform="translate(289.000000, 956.000000)">
                <polygon id="Path" fill="#B09C9B" points="19.1487378 20.4255319 4.25531915 28.9359655 19.1487378 37.4468085 34.0425532 28.9359655"></polygon>
                <path d="M14.5344488,34.893617 L25.4655344,34.893617 C25.9981246,30.3773417 27.7696965,26.0920122 30.5013692,22.4367945 C32.1894366,20.1778421 33.1914894,17.3580213 33.1914894,14.2991081 C33.1914894,6.65671322 26.9382483,0.503043651 19.3629209,0.866365948 C12.5647039,1.19262293 7.07379009,6.84774252 6.81808284,13.7806 C6.69662189,17.0741247 7.73782982,20.1151161 9.55614815,22.5129618 C12.293814,26.1221534 14.0138449,30.4013731 14.5344488,34.893617 Z" id="Path" fill="#FECC91"></path>
                <path d="M32.3404255,14.2989011 C32.3404255,17.357845 31.3585031,20.1772869 29.7035647,22.4366692 C27.0263778,26.0919237 25.2911785,30.3764817 24.7700707,34.893617 L21.6951034,34.893617 C22.2158197,30.376889 23.9514106,26.0919237 26.6285974,22.4366692 C28.2835359,20.1772869 29.2654582,17.357845 29.2654582,14.2989011 C29.2654582,7.41240798 24.2877229,1.73197788 17.8723404,0.944228516 C18.1761569,0.908384701 18.4815394,0.882316471 18.7888795,0.866431222 C26.2116328,0.502290588 32.3404255,6.65683671 32.3404255,14.2989011 Z" id="Path" fill="#F9B200"></path>
                <path d="M24.4538745,46.8085106 L13.8439978,46.8085106 C12.7786481,46.8085106 11.9148936,45.9339136 11.9148936,44.8551907 L11.9148936,36.846937 C11.9148936,35.7682141 12.7786481,34.893617 13.8439978,34.893617 L24.4538745,34.893617 C25.5196172,34.893617 26.3829787,35.7682141 26.3829787,36.846937 L26.3829787,44.8551907 C26.3829787,45.9343114 25.5196172,46.8085106 24.4538745,46.8085106 L24.4538745,46.8085106 Z" id="Path" fill="#A7C7D3"></path>
                <path d="M28.9361702,12.1100075 C28.9361702,9.93725794 27.6356792,8.08081568 25.7995277,7.33310494 C25.5683647,5.59424288 24.1319658,4.25531915 22.3942579,4.25531915 C21.4082283,4.25531915 20.5190479,4.6863085 19.8921179,5.37729914 C19.6872597,5.60293727 19.5744681,5.90185589 19.5744681,6.21195293 L19.5744681,21.3826964 C19.5744681,22.2537835 20.2468335,22.9716852 21.0857957,22.9783094 C21.0917741,22.9783094 21.0977524,22.9787234 21.1033322,22.9787234 C22.206139,22.9787234 23.1216241,22.1482097 23.3033661,21.0564528 C23.4404696,21.0725994 23.579566,21.0808797 23.7206551,21.0808797 C25.7592735,21.0808797 27.4120888,19.3643744 27.4120888,17.2466887 C27.4120888,16.8111453 27.3419428,16.3925763 27.2132089,16.0021604 C28.2677903,15.0619328 28.9361702,13.667117 28.9361702,12.1100075 L28.9361702,12.1100075 Z" id="Path" fill="#FFADC2"></path>
                <path d="M10.212766,12.1100075 C10.212766,9.93725794 11.5128585,8.08081568 13.3490099,7.33310494 C13.5805715,5.59424288 15.0169704,4.25531915 16.7546783,4.25531915 C17.7407079,4.25531915 18.6294897,4.6863085 19.2568182,5.37729914 C19.4612778,5.60293727 19.5744681,5.90185589 19.5744681,6.21195293 L19.5744681,21.3826964 C19.5744681,22.2537835 18.9017041,22.9716852 18.0631405,22.9783094 C18.0571621,22.9783094 18.0511837,22.9787234 18.0452053,22.9787234 C16.9423985,22.9787234 16.0269134,22.1482097 15.84557,21.0564528 C15.7084665,21.0725994 15.5693701,21.0808797 15.4278824,21.0808797 C13.3892642,21.0808797 11.7368474,19.3643744 11.7368474,17.2466887 C11.7368474,16.8111453 11.8069934,16.3925763 11.9357273,16.0021604 C10.8807473,15.0619328 10.212766,13.667117 10.212766,12.1100075 Z" id="Path" fill="#FFADC2"></path>
                <polygon id="Path" fill="#B09C9B" points="34.893617 44.2707277 19.5744681 52.7659574 19.5744681 37.4318085 34.893617 28.9361702"></polygon>
                <polygon id="Path" fill="#B09C9B" points="4.25531915 44.2707277 19.5744681 52.7659574 19.5744681 37.4318085 4.25531915 28.9361702"></polygon>
                <path d="M37.7744017,36.5692747 L24.5035333,44.1245115 C24.0212114,44.3989027 23.4141995,44.2279231 23.1355513,43.7397044 L19.5744681,37.5032764 L34.6222697,28.9361702 L38.1580942,35.1281024 C38.4467656,35.6340372 38.2735628,36.2849954 37.7744017,36.5692747 L37.7744017,36.5692747 Z" id="Path" fill="#B09C9B"></path>
                <path d="M1.37470762,36.5692747 L14.6454498,44.1245115 C15.1273661,44.3989027 15.7343723,44.2279231 16.0134187,43.7397044 L19.5744681,37.5032764 L4.52640862,28.9361702 L0.991018815,35.1281024 C0.7019492,35.6340372 0.87555133,36.2849954 1.37470762,36.5692747 L1.37470762,36.5692747 Z" id="Path" fill="#B09C9B"></path>
                <path d="M26.5318986,7.44578507 C26.0684583,5.5990092 24.3730633,4.25531915 22.418013,4.25531915 C21.3681382,4.25531915 20.349615,4.64948951 19.5746691,5.34487297 C18.7993212,4.64948951 17.7811999,4.25531915 16.7309231,4.25531915 C14.7762748,4.25531915 13.0804777,5.5990092 12.6170376,7.44578507 C10.6258126,8.39331 9.36170213,10.3685502 9.36170213,12.5903466 C9.36170213,14.0904281 9.954166,15.5194951 11.002835,16.5823188 C10.9337008,16.8955007 10.8987317,17.2162629 10.8987317,17.5402166 C10.8987317,19.951518 12.8360965,21.9219707 15.24695,21.9985706 C15.7099882,23.0905183 16.7928223,23.8297872 18.0324141,23.8297872 L18.0565307,23.8293883 C18.6381421,23.8249997 19.1695107,23.6027802 19.5742671,23.2417233 C19.9774158,23.6027802 20.5071766,23.8249997 21.0855723,23.8293883 L21.1165219,23.8297872 C22.3565158,23.8297872 23.4393499,23.0905183 23.9023881,21.9985706 C26.3132416,21.9219707 28.2506063,19.951518 28.2506063,17.5402166 C28.2506063,17.2162629 28.2156373,16.8955007 28.1465031,16.5823188 C29.1947702,15.5194951 29.787234,14.0904281 29.787234,12.5903466 C29.787234,10.3685502 28.5231236,8.39331 26.5318986,7.44578507 L26.5318986,7.44578507 Z M18.0444725,22.2973901 C18.0420608,22.2973901 18.0348259,22.2977891 18.0324141,22.2977891 C17.554906,22.2977891 17.1264349,22.0731758 16.8543196,21.7181032 C17.3756395,21.513039 17.8587748,21.2074372 18.2808149,20.811671 C18.5903109,20.5212297 18.6043789,20.036496 18.3117645,19.7288994 C18.0187481,19.4213029 17.5303875,19.4077384 17.2204895,19.6981797 C16.7904107,20.1015261 16.2682868,20.3616465 15.7091842,20.4518111 C15.6026694,20.4629819 15.4965565,20.4689663 15.3928552,20.4689663 C13.7657903,20.4689663 12.4421924,19.155198 12.4421924,17.5398177 C12.4421924,17.2182577 12.4944451,16.9022831 12.5973424,16.6006709 C12.9365822,15.7281501 13.6882154,15.0551082 14.5648529,14.8137387 C14.7131698,15.293286 14.9466986,15.738523 15.2569985,16.1207246 C15.4097368,16.3082348 15.6328151,16.4059795 15.8583051,16.4059795 C16.028327,16.4059795 16.1995546,16.3505243 16.3422443,16.2364224 C16.6742492,15.9707165 16.7260998,15.4887754 16.4588078,15.1592361 C16.1127349,14.7327502 15.9218121,14.1686239 15.9218121,13.5701871 C15.9218121,13.0575263 16.0596784,12.5735903 16.3209414,12.1714408 C16.5516565,11.8159694 16.4483572,11.3420074 16.0898242,11.1126067 C15.731693,10.8840039 15.253783,10.986536 15.0230677,11.3420074 C14.6524764,11.9133151 14.4354273,12.5779789 14.3884,13.2789478 C13.30436,13.5099444 12.3505495,14.1446864 11.7062351,15.0387509 C11.1909442,14.3329945 10.9051628,13.4788258 10.9051628,12.5903466 C10.9051628,10.8588695 11.9546357,9.3320578 13.5780831,8.70010856 C13.8381402,8.59917225 14.0226319,8.3665798 14.0608165,8.09209679 C14.2441024,6.77792957 15.3920513,5.7873173 16.7309231,5.7873173 C17.4809485,5.7873173 18.1775155,6.08573778 18.6924044,6.62792142 C18.7635483,6.70252657 18.8029387,6.80186715 18.8029387,6.90679299 L18.8029387,8.2281414 C17.8181786,8.26165385 16.872407,8.64026493 16.1296166,9.31570055 C15.8152972,9.60175331 15.7943961,10.0860882 16.0821872,10.3980732 C16.2345236,10.5632417 16.4423281,10.6466239 16.6513384,10.6466239 C16.837438,10.6466239 17.0243414,10.5803969 17.1726584,10.4455492 C17.6272557,10.0318299 18.202436,9.79524784 18.8025367,9.76213431 L18.8025367,21.5258056 C18.8025367,21.947903 18.4624931,22.2941985 18.0444725,22.2973901 Z M27.4427011,15.0387509 C26.7983866,14.1446864 25.8445762,13.5099444 24.7605362,13.2789478 C24.7135089,12.5779789 24.4964598,11.9133151 24.1258684,11.3420074 C23.8951532,10.986536 23.417645,10.8840039 23.059112,11.1126067 C22.7005789,11.3420074 22.5972796,11.8159694 22.8279948,12.1714408 C23.0888557,12.5735903 23.2271241,13.0575263 23.2271241,13.5701871 C23.2271241,14.1686239 23.0362012,14.7327502 22.6901284,15.1592361 C22.4224344,15.4887754 22.474687,15.9707165 22.8066918,16.2364224 C22.9493815,16.3505243 23.1206092,16.4059795 23.2906311,16.4059795 C23.5157191,16.4059795 23.7391994,16.3082348 23.8919377,16.1207246 C24.2022376,15.738523 24.4357664,15.293286 24.5840833,14.8137387 C25.4607207,15.0551082 26.2123539,15.7281501 26.5511918,16.6010699 C26.6540892,16.902682 26.7067437,17.2182577 26.7067437,17.5398177 C26.7067437,19.155198 25.3827438,20.4689663 23.755679,20.4689663 C23.6523797,20.4689663 23.5458648,20.4629819 23.4393499,20.4518111 C22.8806493,20.3616465 22.3581236,20.1015261 21.9280446,19.6981797 C21.6181466,19.4077384 21.1297861,19.4213029 20.8371717,19.7288994 C20.5441552,20.036496 20.5582233,20.5212297 20.8681213,20.81207 C21.2897593,21.2074372 21.7728947,21.513039 22.2942146,21.7181032 C22.0220993,22.0731758 21.5936282,22.2977891 21.11612,22.2977891 L21.1044637,22.2973901 C20.6860412,22.2941985 20.3459974,21.947903 20.3459974,21.5258056 L20.3459974,9.76173538 C20.9460981,9.79484891 21.5212784,10.0318299 21.9762778,10.4451502 C22.1241928,10.579998 22.3110963,10.6466239 22.4971958,10.6466239 C22.7062061,10.6466239 22.9144125,10.5632417 23.0663469,10.3980732 C23.3545399,10.0860882 23.333237,9.60175331 23.0189177,9.31570055 C22.2761272,8.64026493 21.3307576,8.26125492 20.3459974,8.22774246 L20.3459974,6.90679299 C20.3459974,6.80186715 20.384986,6.7029256 20.4561298,6.62792142 C20.9710186,6.08573778 21.6675856,5.7873173 22.4176111,5.7873173 C23.7568848,5.7873173 24.9044317,6.77832861 25.0877177,8.09209679 C25.1259023,8.3665798 25.3103941,8.59917225 25.5704512,8.70050749 C27.1938984,9.3320578 28.2433713,10.8588695 28.2433713,12.5903466 C28.2437733,13.4788258 27.9579919,14.3329945 27.4427011,15.0387509 Z" id="Shape" fill="#000000"></path>
                <path d="M35.3514703,28.5759167 C35.2814192,28.4560605 35.1791608,28.3542032 35.0591881,28.2862983 L29.3351257,25.0640885 C29.7767699,24.3363608 30.25505,23.626632 30.7703686,22.9394018 C32.6472555,20.4363293 33.6392438,17.4452416 33.6392438,14.2905277 C33.6392438,11.1415406 32.6500737,8.15372541 30.7780178,5.65147113 C30.5199559,5.30581072 30.0348318,5.23872396 29.6950436,5.50093499 C29.3548528,5.76355505 29.2888276,6.25647919 29.547292,6.60173056 C31.2132205,8.82868372 32.0936907,11.4876102 32.0936907,14.2905277 C32.0936907,17.098763 31.2108049,19.7601438 29.5408506,21.9875061 C26.9014531,25.5071066 25.1513828,29.5814 24.4681831,33.7870035 L14.6827661,33.7870035 C14.0052026,29.5396753 12.2728464,25.4903348 9.66243563,22.0595017 C7.87653461,19.7126923 6.95379224,16.7792828 7.06410268,13.799649 C7.30606084,7.25787179 12.5353368,1.89215816 18.9683649,1.58494997 C21.9942513,1.43891357 24.9637747,2.40553552 27.3282013,4.30400897 C27.6631584,4.57276515 28.1494903,4.51467779 28.4139937,4.17474435 C28.6788997,3.83440176 28.6217316,3.34025051 28.2867745,3.07149433 C25.629663,0.938217273 22.2945853,-0.145806634 18.8958982,0.0157743063 C15.3889135,0.183491152 12.084433,1.68517102 9.59037162,4.24428545 C7.09711523,6.80299084 5.65100241,10.1757367 5.51935469,13.7407435 C5.39535605,17.0873092 6.43243473,20.3831508 8.43935919,23.0203968 C8.93776885,23.6757199 9.40155559,24.3551778 9.83071941,25.05468 L4.08974815,28.2867074 C3.97058072,28.3537941 3.86590663,28.4560605 3.79746583,28.5763258 L0.247403848,34.7241728 C0.0010171228,35.1508282 -0.0642029182,35.6490701 0.0646267314,36.1268588 C0.193053814,36.6042383 0.498621665,36.9993957 0.924967209,37.2395172 L3.69118137,38.79683 L3.69118137,44.3269878 C3.69118137,44.6125157 3.84376401,44.8755449 4.08974815,45.0142181 L19.1998557,53.5199193 C19.4301387,53.649184 19.7192001,53.649593 19.9490806,53.5199193 L29.4148391,48.1914306 C29.7880425,47.981171 29.9233136,47.5033823 29.716381,47.1237695 C29.5094484,46.7445656 29.0388175,46.6071196 28.6656142,46.8173792 L20.3476474,51.4999533 L20.3476474,40.3700963 L22.4834014,44.0688675 C22.8183585,44.6493316 23.4105723,44.9720844 24.0241234,44.9720844 C24.3196264,44.9720844 24.6195579,44.8972253 24.8985547,44.7405532 L33.911799,39.6669125 L33.911799,43.8639257 L31.7965772,45.0547156 C31.4233738,45.2649754 31.2881027,45.742764 31.4950354,46.1223769 C31.6363454,46.3809063 31.9000435,46.5269427 32.1717936,46.5269427 C32.2986103,46.5269427 32.4274399,46.4954447 32.5458021,46.428767 L35.0591881,45.013809 C35.3051722,44.8755449 35.4577548,44.6121066 35.4577548,44.3265788 L35.4577548,38.7964209 L38.2239689,37.2391082 C38.6503146,36.9993957 38.9558824,36.6042383 39.0843094,36.1264497 C39.2131391,35.6490701 39.1479191,35.1508282 38.9015324,34.7237638 L35.3514703,28.5759167 Z M19.5742668,36.5817397 L17.4006691,35.3578154 L21.7482671,35.3578154 L19.5742668,36.5817397 Z M33.0897048,28.9735285 L26.2198638,32.8404256 C26.6965335,30.6277898 27.4880307,28.4658781 28.5637583,26.4258679 L33.0897048,28.9735285 Z M10.6057102,26.4144141 C11.6758015,28.4376526 12.4628701,30.6048821 12.9359165,32.8445163 L6.05923142,28.9735285 L10.6057102,26.4144141 Z M5.23713716,39.6669125 L6.68566559,40.4821803 C6.80443045,40.5492671 6.93285742,40.5807651 7.05967414,40.5807651 C7.3314242,40.5807651 7.59552499,40.4347287 7.73643236,40.1757902 C7.94336504,39.7965863 7.80809391,39.3183887 7.43489049,39.1081289 L1.67378965,35.8650568 C1.59488139,35.8204686 1.56589472,35.7501094 1.55542736,35.7120663 C1.54496,35.6740231 1.53489511,35.598346 1.58038815,35.5189873 L4.74919486,30.0321903 L18.5065911,37.7766203 L15.332148,43.274053 C15.2637072,43.392273 15.1175662,43.4331795 14.9996064,43.3665019 L10.3879076,40.7705715 C10.0147042,40.5607209 9.54407344,40.6977578 9.33714076,41.0769616 C9.13061075,41.4565745 9.26547932,41.9343631 9.63868274,42.1446229 L14.2503815,44.7405532 C14.5289756,44.8976344 14.8289071,44.9720844 15.1244102,44.9720844 C15.7379614,44.9720844 16.3301752,44.6493316 16.6655349,44.0692766 L18.8012889,40.3705053 L18.8012889,51.4995442 L5.23713716,43.8639257 L5.23713716,39.6669125 Z M37.5931062,35.7120663 C37.5830414,35.7501094 37.5540548,35.8204686 37.474744,35.8650568 L24.1493297,43.3665019 C24.0309675,43.4331795 23.8848264,43.392273 23.8167882,43.274053 L20.6419425,37.7766203 L34.3997414,30.0321903 L37.5681455,35.5189873 C37.6140411,35.598346 37.6035737,35.6740231 37.5931062,35.7120663 Z" id="Shape" fill="#000000"></path>
                <path d="M3.40491969,22.9787234 L3.40890587,22.9787234 C3.87883478,22.9767524 4.25752401,22.6361692 4.25530949,22.2183241 L4.25442361,22.0298996 C4.25176619,21.6128429 3.87130532,21.2765957 3.40403382,21.2765957 C3.40226217,21.2765957 3.40093341,21.2765957 3.39960465,21.2765957 C2.93011873,21.2785668 2.55098661,21.61915 2.55320114,22.0373893 L2.5545299,22.2258137 C2.55674443,22.6424763 2.93676231,22.9787234 3.40491969,22.9787234 Z" id="Path" fill="#000000"></path>
                <path d="M2.55409149,24.7786111 C2.55630658,25.1956677 2.93686553,25.5319149 3.40470048,25.5319149 L3.40868769,25.5319149 C3.87873773,25.5299439 4.25752458,25.1893607 4.25530948,24.7711214 L4.25442338,24.5826969 C4.25176528,24.1660344 3.87164933,23.8297872 3.40381438,23.8297872 C3.40248527,23.8297872 3.40071317,23.8297872 3.39938406,23.8297872 C2.92977713,23.8317583 2.55054728,24.1723415 2.55320538,24.5901865 L2.55409149,24.7786111 Z" id="Path" fill="#000000"></path>
                <path d="M5.01199643,23.8297872 L5.01633154,23.8297872 L5.20431639,23.8289012 C5.62245473,23.826243 5.95940868,23.4434636 5.95743821,22.97385 C5.95507357,22.5055656 5.6169373,22.1276596 5.20076953,22.1276596 C5.19919313,22.1276596 5.19801081,22.1276596 5.1968286,22.1276596 L5.00844957,22.1285456 C4.59031133,22.1312038 4.25335728,22.5139832 4.25532775,22.9835968 C4.25769239,23.4518812 4.59582865,23.8297872 5.01199643,23.8297872 Z" id="Path" fill="#000000"></path>
                <path d="M2.4585881,23.8297872 L2.4629242,23.8297872 L2.65134633,23.8289012 C3.06918641,23.826243 3.40621764,23.4434636 3.40424672,22.97385 C3.40188154,22.5055656 3.06366772,22.1276596 2.64740449,22.1276596 C2.6462219,22.1276596 2.64464514,22.1276596 2.64346265,22.1276596 L2.45504042,22.1285456 C2.03680628,22.1312038 1.69977495,22.5139832 1.70214003,22.9835968 C1.70411105,23.4518812 2.04271903,23.8297872 2.4585881,23.8297872 Z" id="Path" fill="#000000"></path>
                <path d="M36.5957543,16.0799424 L36.5966402,16.268367 C36.5992976,16.6850295 36.9793156,17.0212766 37.44703,17.0212766 L37.4514592,17.0212766 C37.9209451,17.0193057 38.3000772,16.6787224 38.2978627,16.2608773 L38.2965339,16.0724527 C38.2943194,15.6557902 37.9138585,15.3191489 37.4461441,15.3191489 C37.4448155,15.3191489 37.4434867,15.3191489 37.442158,15.3191489 C36.972229,15.321514 36.5935398,15.6620973 36.5957543,16.0799424 L36.5957543,16.0799424 Z" id="Path" fill="#000000"></path>
                <path d="M37.4474729,20.4255319 L37.4519021,20.4255319 C37.9213881,20.4231674 38.3000772,20.082663 38.2978627,19.6649146 L38.2965339,19.4765336 C38.2943194,19.0595735 37.9138585,18.7234043 37.4465871,18.7234043 C37.4448155,18.7234043 37.4434867,18.7234043 37.4417151,18.7234043 C36.972229,18.7257688 36.5935398,19.0662732 36.5957543,19.4844158 L36.5970831,19.6724025 C36.5992976,20.0893627 36.9797585,20.4255319 37.4474729,20.4255319 Z" id="Path" fill="#000000"></path>
                <path d="M39.2435403,17.0212766 C39.2423577,17.0212766 39.2411751,17.0212766 39.2395983,17.0212766 L39.0511754,17.0221625 C38.6333338,17.0248199 38.2963011,17.4070568 38.2978779,17.8765481 C38.300243,18.3451536 38.6384582,18.7234043 39.0547231,18.7234043 L39.0582708,18.7234043 L39.2466938,18.7220755 C39.6649296,18.7198609 40.0019623,18.3371812 39.9999914,17.8676898 C39.9984145,17.3995272 39.6598052,17.0212766 39.2435403,17.0212766 L39.2435403,17.0212766 Z" id="Path" fill="#000000"></path>
                <path d="M35.650294,18.7234043 L35.6542349,18.7234043 L35.8422205,18.7225181 C36.2603603,18.720303 36.5973156,18.3375237 36.5957392,17.8679101 C36.5933745,17.3996257 36.255237,17.0212766 35.8390677,17.0212766 C35.8378854,17.0212766 35.8367031,17.0212766 35.8355209,17.0212766 L35.6471412,17.0221627 C35.2290014,17.0243778 34.8920461,17.4071572 34.8936225,17.8767707 C34.895593,18.3454982 35.2341247,18.7234043 35.650294,18.7234043 L35.650294,18.7234043 Z" id="Path" fill="#000000"></path>
                <path d="M5.10704736,4.25531915 L5.11147642,4.25531915 C5.58096244,4.25295404 5.95965167,3.91237082 5.95743715,3.49452567 L5.95610838,3.3061011 C5.95389385,2.88943855 5.57343298,2.55319149 5.10616148,2.55319149 C5.10438984,2.55319149 5.10306107,2.55319149 5.10128954,2.55319149 C4.6318034,2.55516243 4.25311428,2.89574565 4.25532881,3.31398507 L4.25665757,3.50240954 C4.2588721,3.91907208 4.63933298,4.25531915 5.10704736,4.25531915 Z" id="Path" fill="#000000"></path>
                <path d="M5.95610838,5.85929259 C5.95389385,5.44263004 5.57343298,5.10638298 5.10616148,5.10638298 C5.10438984,5.10638298 5.10306107,5.10638298 5.10128954,5.10638298 C4.6318034,5.10835392 4.25311428,5.44893714 4.25532881,5.86717656 L4.25665757,6.05560103 C4.2588721,6.47226357 4.63933298,6.80851064 5.10704736,6.80851064 L5.11147642,6.80851064 C5.58096244,6.80614553 5.95965167,6.46556231 5.95743715,6.04771715 L5.95610838,5.85929259 Z" id="Path" fill="#000000"></path>
                <path d="M5.86284346,5.95744681 L5.86717946,5.95744681 L6.0556017,5.95611803 C6.47344171,5.95390348 6.81047296,5.57122373 6.80850204,5.10128948 C6.80613696,4.63312679 6.46792302,4.25531915 6.05165976,4.25531915 C6.05047717,4.25531915 6.04890052,4.25531915 6.04771793,4.25531915 L5.85929569,4.25664793 C5.44106152,4.25886248 5.10403017,4.64154223 5.10639535,5.11147647 C5.10836627,5.57963917 5.44697437,5.95744681 5.86284346,5.95744681 Z" id="Path" fill="#000000"></path>
                <path d="M3.31004236,5.95744681 L3.3139842,5.95744681 L3.50240644,5.95656103 C3.92064061,5.95390348 4.25767186,5.57122373 4.25530678,5.10128948 C4.25333586,4.63312679 3.91472775,4.25531915 3.49885867,4.25531915 C3.49728191,4.25531915 3.49609942,4.25531915 3.49452257,4.25531915 L3.30610043,4.25664793 C2.88826042,4.25886248 2.55122907,4.64198523 2.55320009,5.11147647 C2.55556517,5.57963917 2.89377911,5.95744681 3.31004236,5.95744681 Z" id="Path" fill="#000000"></path>
                <path d="M34.8885236,21.2765957 C34.4190374,21.2785667 34.0403483,21.6191499 34.0425629,22.0373892 L34.0438916,22.2258137 C34.0461061,22.6424763 34.426567,22.9787234 34.8942814,22.9787234 L34.8987105,22.9787234 C35.3681965,22.9763582 35.7468857,22.635775 35.7446712,22.2179299 L35.7437853,22.0295054 C35.7411279,21.611266 35.3549092,21.2769899 34.8885236,21.2765957 L34.8885236,21.2765957 Z" id="Path" fill="#000000"></path>
                <path d="M34.8940601,25.5319149 L34.8984903,25.5319149 C35.3685391,25.5295497 35.747325,25.1889665 35.7446669,24.7711214 L35.7437808,24.5826969 C35.7411228,24.1660343 35.3610077,23.8297872 34.893174,23.8297872 C34.8914019,23.8297872 34.8900728,23.8297872 34.8887438,23.8297872 C34.4186948,23.8317582 34.039909,24.1723414 34.0425671,24.5905807 L34.0434532,24.7790052 C34.0456683,25.1956677 34.4262263,25.5319149 34.8940601,25.5319149 Z" id="Path" fill="#000000"></path>
                <path d="M35.6500775,24.6808511 L35.6544135,24.6808511 L35.8428357,24.6795223 C36.2606757,24.6773077 36.597707,24.294628 36.5957361,23.8246937 C36.593371,23.3565312 36.2551571,22.9787234 35.8388938,22.9787234 C35.8377112,22.9787234 35.8361346,22.9787234 35.834952,22.9787234 L35.6465297,22.9800522 C35.2282956,22.9822667 34.8912642,23.3649465 34.8936294,23.8348808 C34.8956003,24.3030434 35.2342084,24.6808511 35.6500775,24.6808511 Z" id="Path" fill="#000000"></path>
                <path d="M33.2817605,22.978725 L33.0933382,22.9800537 C32.6751041,22.9822683 32.3380727,23.3653906 32.3404379,23.8348816 C32.3424088,24.3030438 32.6810169,24.6808511 33.0972802,24.6808511 L33.101222,24.6808511 L33.2896443,24.6795223 C33.7074843,24.6773077 34.0445155,24.2946283 34.0425446,23.8246945 C34.0405737,23.3552036 33.7043308,22.9778392 33.2817605,22.978725 Z" id="Path" fill="#000000"></path>
                <path d="M34.9271368,8.8260182 C35.0340701,9.15082723 35.3715921,9.36170213 35.7385977,9.36170213 C35.8160473,9.36170213 35.8948171,9.3524329 35.9731468,9.33234959 L36.8360941,9.11375034 C37.2845098,9.00020239 37.5428219,8.5888805 37.4134459,8.19571097 C37.2840697,7.80215515 36.8154115,7.57505916 36.3674358,7.68899339 L35.5044886,7.90759264 C35.0560728,8.02114059 34.7973207,8.43246238 34.9271368,8.8260182 Z" id="Path" fill="#000000"></path>
                <path d="M34.1242121,7.65957447 C34.3690695,7.65957447 34.6134411,7.56486933 34.7965983,7.37642047 L35.4840453,6.66925649 C35.841129,6.30197351 35.829955,5.71787829 35.4587823,5.36405594 C35.0871236,5.0107143 34.4968423,5.02225199 34.1397586,5.38953497 L33.4523116,6.09669883 C33.094742,6.46398193 33.1064019,7.04807715 33.4775746,7.4018995 C33.6583027,7.57400336 33.8915003,7.65957447 34.1242121,7.65957447 Z" id="Path" fill="#000000"></path>
                <path d="M36.8068908,10.4275947 L35.9378166,10.2350515 C35.4870555,10.1348503 35.0301557,10.382013 34.9183424,10.7863541 C34.8069676,11.1910879 35.0823353,11.5997513 35.5335347,11.6999524 L36.402609,11.8924956 C36.4701354,11.9074276 36.5385389,11.9148936 36.6051884,11.9148936 C36.9831612,11.9148936 37.3269322,11.6850204 37.4220831,11.341193 C37.533458,10.9368521 37.2580902,10.5277959 36.8068908,10.4275947 Z" id="Path" fill="#000000"></path>
                <path d="M2.53548885,16.1702128 C2.54982174,16.1702128 2.56458904,16.1702128 2.57935623,16.1689192 L3.46495674,16.1232141 C3.92491296,16.0990681 4.27845827,15.7097122 4.25413575,15.2530923 C4.23024753,14.7964724 3.8380468,14.441611 3.37765627,14.4696378 L2.49249007,14.5157741 C2.03253374,14.539489 1.67898854,14.9288448 1.70331106,15.3858958 C1.72633056,15.8278556 2.09464307,16.1702128 2.53548885,16.1702128 Z" id="Path" fill="#000000"></path>
                <path d="M2.17550243,14.0622343 L2.99563455,14.3931258 C3.12194751,14.4438126 3.25592946,14.4680851 3.38810693,14.4680851 C3.70343826,14.4680851 4.00749156,14.3310167 4.16087159,14.0936458 C4.37785931,13.7563291 4.20823904,13.3436962 3.78238389,13.1716469 L2.96180069,12.8407553 C2.53549433,12.6690629 2.01400234,12.8029187 1.79656353,13.1402354 C1.57957592,13.477552 1.74919619,13.8905418 2.17550243,14.0622343 Z" id="Path" fill="#000000"></path>
                <path d="M3.8528864,18.2346534 C4.26211446,18.0363347 4.37844554,17.6276676 4.1126773,17.3217687 C3.84736883,17.0162136 3.30019874,16.9292558 2.89143057,17.1279182 L2.10424141,17.5097762 C1.69547324,17.7080949 1.57914204,18.1171058 1.84445051,18.422661 C2.01365939,18.6171989 2.29690035,18.7234043 2.58565911,18.7234043 C2.75026986,18.7234043 2.91717975,18.6886898 3.06569724,18.6168552 L3.8528864,18.2346534 Z" id="Path" fill="#000000"></path>
            </g>
        </g>
    </g>
</svg>