<svg xmlns="http://www.w3.org/2000/svg" viewBox="0 0 719 397.87"><defs><style>.cls-1{fill:none;}.cls-1,.cls-2,.cls-3{stroke:#ccc;stroke-miterlimit:10;}.cls-1,.cls-2{stroke-width:2px;}.cls-2,.cls-3{fill:#ccc;}.cls-4{fill:#fecc91;}.cls-5{fill:#e6e6e6;}.cls-6,.cls-8{fill:#353c46;}.cls-7{fill:#ffadc2;}.cls-8{font-size:12px;font-family:ProximaNova-Bold, Proxima Nova;font-weight:700;}.cls-9{letter-spacing:-0.01em;}.cls-10{letter-spacing:-0.04em;}.cls-11{letter-spacing:0em;}.cls-12{letter-spacing:-0.1em;}.cls-13{letter-spacing:-0.01em;}.cls-14{letter-spacing:0em;}.cls-15{letter-spacing:-0.01em;}</style></defs><title>Asset 3</title><g id="Layer_2" data-name="Layer 2"><g id="Layer_1-2" data-name="Layer 1"><line class="cls-1" x1="396.57" y1="231.22" x2="563" y2="231.22"/><line class="cls-2" x1="397.52" y1="232" x2="397.52" y2="145"/><line class="cls-2" x1="562.12" y1="231" x2="562.12" y2="109"/><polygon class="cls-3" points="472.7 155.5 485.7 147.99 485.7 163.01 472.7 155.5"/><line class="cls-2" x1="17.57" y1="32.88" x2="616" y2="32.88"/><line class="cls-2" x1="18.51" y1="155.38" x2="616" y2="155.38"/><line class="cls-2" x1="92" y1="296.07" x2="678" y2="296.07"/><line class="cls-1" x1="229.57" y1="389.22" x2="396" y2="389.22"/><line class="cls-2" x1="62.74" y1="326" x2="62.74" y2="184.94"/><line class="cls-2" x1="229.74" y1="390" x2="229.74" y2="248.94"/><line class="cls-2" x1="395.12" y1="389" x2="395.12" y2="267"/><line class="cls-1" x1="561.28" y1="160.37" x2="561.28" y2="32.94"/><circle class="cls-4" cx="692.5" cy="296.5" r="26.5"/><rect class="cls-5" x="0.38" y="0.38" width="123.25" height="64.25"/><path class="cls-6" d="M123.25.75v63.5H.75V.75h122.5M124,0H0V65H124V0Z"/><rect class="cls-5" x="166.71" y="0.38" width="123.25" height="64.25"/><path class="cls-6" d="M289.58.75v63.5H167.08V.75h122.5m.75-.75h-124V65h124V0Z"/><rect class="cls-5" x="333.04" y="0.38" width="123.25" height="64.25"/><path class="cls-6" d="M455.92.75v63.5H333.42V.75h122.5m.75-.75h-124V65h124V0Z"/><rect class="cls-5" x="499.38" y="0.38" width="123.25" height="64.25"/><path class="cls-6" d="M622.25.75v63.5H499.75V.75h122.5M623,0H499V65H623V0Z"/><rect class="cls-5" x="166.88" y="122.38" width="123.25" height="64.25"/><path class="cls-6" d="M289.75,122.75v63.5H167.25v-63.5h122.5m.75-.75h-124v65h124V122Z"/><rect class="cls-5" x="0.38" y="122.38" width="123.25" height="64.25"/><path class="cls-6" d="M123.25,122.75v63.5H.75v-63.5h122.5M124,122H0v65H124V122Z"/><rect class="cls-5" x="333.38" y="122.38" width="123.25" height="64.25"/><path class="cls-6" d="M456.25,122.75v63.5H333.75v-63.5h122.5M457,122H333v65H457V122Z"/><rect class="cls-5" x="334.88" y="264.38" width="123.25" height="64.25"/><path class="cls-6" d="M457.75,264.75v63.5H335.25v-63.5h122.5m.75-.75h-124v65h124V264Z"/><rect class="cls-5" x="501.38" y="264.38" width="123.25" height="64.25"/><path class="cls-6" d="M624.25,264.75v63.5H501.75v-63.5h122.5M625,264H501v65H625V264Z"/><rect class="cls-7" x="187.78" y="254.78" width="83.44" height="83.44" transform="translate(-142.44 249.12) rotate(-45)"/><rect class="cls-7" x="519.78" y="112.78" width="83.44" height="83.44" transform="translate(55.21 442.29) rotate(-45)"/><text class="cls-8" transform="translate(33.45 29.01)">Site <tspan class="cls-9" x="24" y="0">A</tspan><tspan x="32.04" y="0">udit</tspan><tspan x="-3.69" y="14.4">&amp; Analytics</tspan></text><text class="cls-8" transform="translate(349.21 29.21)">Existing <tspan class="cls-10" x="45.94" y="0">W</tspan><tspan class="cls-11" x="56.47" y="0">ebsite</tspan><tspan x="10.94" y="14.4">User </tspan><tspan class="cls-12" x="39.43" y="14.4">T</tspan><tspan class="cls-11" x="45.23" y="14.4">esting</tspan></text><path class="cls-6" d="M371.45,141.81h3.74a2.57,2.57,0,1,1,0,5.13h-2v2.87h-1.7Zm3.51,1.46h-1.81v2.21H375a1.09,1.09,0,0,0,1.18-1.1A1.1,1.1,0,0,0,375,143.27Z"/><path class="cls-6" d="M378.9,144h1.53v.79a2.44,2.44,0,0,1,1.84-.93v1.49a2.42,2.42,0,0,0-.42,0,1.92,1.92,0,0,0-1.42.64v3.83H378.9Z"/><path class="cls-6" d="M382.85,146.91a3.07,3.07,0,1,1,3.06,3A2.93,2.93,0,0,1,382.85,146.91Zm4.55,0a1.5,1.5,0,1,0-1.49,1.69A1.53,1.53,0,0,0,387.4,146.91Z"/><path class="cls-6" d="M390.11,141.81h1.52v2.95a2.24,2.24,0,0,1,1.79-.89c1.48,0,2.57,1.15,2.57,3s-1.11,3-2.57,3a2.28,2.28,0,0,1-1.79-.87v.73h-1.52Zm2.83,6.79a1.7,1.7,0,0,0,0-3.37,1.71,1.71,0,0,0-1.31.67v2A1.72,1.72,0,0,0,392.94,148.6Z"/><path class="cls-6" d="M397.14,141.81h1.53v8h-1.53Z"/><path class="cls-6" d="M402.8,143.87a2.91,2.91,0,0,1,2.91,3.19v.34H401.4a1.57,1.57,0,0,0,1.67,1.34,2.39,2.39,0,0,0,1.55-.57l.67,1a3.58,3.58,0,0,1-2.39.8,3,3,0,0,1-.1-6.08Zm-1.42,2.5h2.85a1.34,1.34,0,0,0-1.43-1.29A1.39,1.39,0,0,0,401.38,146.37Z"/><path class="cls-6" d="M414,146.15c0-.54-.24-.92-.87-.92a1.53,1.53,0,0,0-1.19.67v3.91H410.4v-3.66c0-.54-.24-.92-.86-.92a1.56,1.56,0,0,0-1.2.68v3.9h-1.53V144h1.53v.75a2.51,2.51,0,0,1,1.89-.9,1.54,1.54,0,0,1,1.61,1.06,2.46,2.46,0,0,1,2-1.06,1.55,1.55,0,0,1,1.7,1.75v4.19H414Z"/><path class="cls-6" d="M417,150.91a2,2,0,0,0,.92-1.11,1.07,1.07,0,0,1-.23,0,.82.82,0,0,1-.81-.87,1,1,0,0,1,.93-1,1.11,1.11,0,0,1,1.08,1.22,2.78,2.78,0,0,1-1.24,2.23Z"/><path class="cls-6" d="M340.06,156.21h3.75a2.57,2.57,0,1,1,0,5.13h-2v2.87h-1.71Zm3.52,1.46h-1.81v2.21h1.81a1.09,1.09,0,0,0,1.17-1.1A1.1,1.1,0,0,0,343.58,157.67Z"/><path class="cls-6" d="M349.94,158.27a2.9,2.9,0,0,1,2.9,3.19v.34h-4.3a1.55,1.55,0,0,0,1.66,1.34,2.37,2.37,0,0,0,1.55-.57l.67,1a3.55,3.55,0,0,1-2.38.8,3,3,0,1,1-.1-6.08Zm-1.43,2.5h2.86a1.35,1.35,0,0,0-1.43-1.29A1.39,1.39,0,0,0,348.51,160.77Z"/><path class="cls-6" d="M354,158.42h1.52v.79a2.48,2.48,0,0,1,1.85-.93v1.49a2.42,2.42,0,0,0-.42,0,1.94,1.94,0,0,0-1.43.64v3.83H354Z"/><path class="cls-6" d="M358.42,162.39a3.37,3.37,0,0,0,2,.79c.66,0,1-.23,1-.59s-.5-.55-1.16-.68c-1-.2-2.28-.44-2.28-1.81,0-1,.85-1.83,2.37-1.83a3.7,3.7,0,0,1,2.33.79l-.6,1.05a2.46,2.46,0,0,0-1.72-.67c-.55,0-.91.2-.91.53s.46.5,1.11.63c1,.19,2.32.45,2.32,1.89,0,1.07-.9,1.86-2.5,1.86a3.86,3.86,0,0,1-2.59-.9Z"/><path class="cls-6" d="M363.62,161.31a3.07,3.07,0,1,1,3.06,3A2.93,2.93,0,0,1,363.62,161.31Zm4.55,0a1.5,1.5,0,1,0-1.49,1.69A1.53,1.53,0,0,0,368.17,161.31Z"/><path class="cls-6" d="M374.79,160.71c0-.81-.42-1.08-1.07-1.08a1.65,1.65,0,0,0-1.32.68v3.9h-1.52v-5.79h1.52v.75a2.68,2.68,0,0,1,2-.9,1.68,1.68,0,0,1,1.88,1.85v4.09h-1.52Z"/><path class="cls-6" d="M381.31,163.61a2.4,2.4,0,0,1-1.84.74,1.93,1.93,0,0,1-2-1.92,1.83,1.83,0,0,1,2-1.84,2.38,2.38,0,0,1,1.84.7v-.8c0-.59-.51-1-1.27-1a2.48,2.48,0,0,0-1.7.68l-.57-1a3.82,3.82,0,0,1,2.53-.91c1.32,0,2.53.53,2.53,2.2v3.74h-1.52Zm0-1.51a1.54,1.54,0,0,0-1.23-.51c-.6,0-1.09.33-1.09.88s.49.85,1.09.85a1.57,1.57,0,0,0,1.23-.5Z"/><path class="cls-6" d="M394.3,164.21h-1.94c-.17-.16-.37-.37-.6-.6a3.53,3.53,0,0,1-2.17.74c-1.48,0-2.65-.76-2.65-2.31a2.57,2.57,0,0,1,1.72-2.32,3.78,3.78,0,0,1-.52-1.71,2.06,2.06,0,0,1,2.27-1.92c1.14,0,2.12.62,2.12,1.69,0,1.22-1,1.74-2,2.19.24.33.48.63.68.87s.46.55.69.81a6.66,6.66,0,0,0,.73-1.54l1.22.56a10.78,10.78,0,0,1-1.11,1.93C393.25,163.12,393.75,163.65,394.3,164.21Zm-3.36-1.48c-.36-.39-.69-.76-.89-1s-.53-.69-.8-1.06a1.45,1.45,0,0,0-.69,1.22,1.21,1.21,0,0,0,1.23,1.26A1.85,1.85,0,0,0,390.94,162.73Zm-.93-3.62c.67-.31,1.18-.66,1.18-1.25a.65.65,0,0,0-.69-.67.82.82,0,0,0-.84.85A2.28,2.28,0,0,0,390,159.11Z"/><path class="cls-6" d="M398.66,161.79a3.53,3.53,0,0,0,2.54,1.08c.94,0,1.39-.45,1.39-.9,0-.6-.69-.81-1.62-1-1.3-.3-3-.66-3-2.45,0-1.33,1.15-2.41,3-2.41a4.42,4.42,0,0,1,3.12,1.12l-.95,1.24a3.39,3.39,0,0,0-2.29-.87c-.77,0-1.17.33-1.17.81s.67.71,1.59.93c1.32.3,3,.69,3,2.47,0,1.46-1,2.56-3.2,2.56a4.61,4.61,0,0,1-3.4-1.27Z"/><path class="cls-6" d="M408.14,158.27a2.67,2.67,0,0,1,2.29,1.06l-1,.92a1.43,1.43,0,0,0-1.22-.62,1.69,1.69,0,0,0,0,3.37,1.44,1.44,0,0,0,1.22-.63l1,.93a2.67,2.67,0,0,1-2.29,1,3,3,0,1,1,0-6.08Z"/><path class="cls-6" d="M414.05,158.27a2.91,2.91,0,0,1,2.91,3.19v.34h-4.31a1.56,1.56,0,0,0,1.67,1.34,2.39,2.39,0,0,0,1.55-.57l.67,1a3.58,3.58,0,0,1-2.39.8,3,3,0,0,1-.1-6.08Zm-1.42,2.5h2.85a1.34,1.34,0,0,0-1.43-1.29A1.39,1.39,0,0,0,412.63,160.77Z"/><path class="cls-6" d="M422,160.71c0-.81-.42-1.08-1.06-1.08a1.64,1.64,0,0,0-1.32.68v3.9h-1.53v-5.79h1.53v.75a2.66,2.66,0,0,1,2-.9,1.69,1.69,0,0,1,1.89,1.85v4.09H422Z"/><path class="cls-6" d="M428.49,163.61a2.39,2.39,0,0,1-1.83.74,1.93,1.93,0,0,1-2-1.92,1.83,1.83,0,0,1,2-1.84,2.36,2.36,0,0,1,1.83.7v-.8c0-.59-.5-1-1.27-1a2.46,2.46,0,0,0-1.69.68l-.58-1a3.82,3.82,0,0,1,2.53-.91c1.32,0,2.53.53,2.53,2.2v3.74h-1.52Zm0-1.51a1.51,1.51,0,0,0-1.22-.51c-.6,0-1.09.33-1.09.88s.49.85,1.09.85a1.53,1.53,0,0,0,1.22-.5Z"/><path class="cls-6" d="M431.53,158.42h1.52v.79a2.48,2.48,0,0,1,1.85-.93v1.49a2.42,2.42,0,0,0-.42,0,1.92,1.92,0,0,0-1.43.64v3.83h-1.52Z"/><path class="cls-6" d="M435.69,156.65a.92.92,0,0,1,1.83,0,.92.92,0,0,1-1.83,0Zm.16,1.77h1.52v5.79h-1.52Z"/><path class="cls-6" d="M438.51,161.31a3.07,3.07,0,1,1,3.06,3A2.93,2.93,0,0,1,438.51,161.31Zm4.55,0a1.5,1.5,0,1,0-1.49,1.69A1.53,1.53,0,0,0,443.06,161.31Z"/><path class="cls-6" d="M445.93,162.39a3.34,3.34,0,0,0,2,.79c.66,0,1-.23,1-.59s-.5-.55-1.16-.68c-1-.2-2.28-.44-2.28-1.81,0-1,.85-1.83,2.37-1.83a3.66,3.66,0,0,1,2.33.79l-.6,1.05a2.46,2.46,0,0,0-1.71-.67c-.56,0-.91.2-.91.53s.45.5,1.1.63c1,.19,2.33.45,2.33,1.89,0,1.07-.9,1.86-2.51,1.86a3.86,3.86,0,0,1-2.59-.9Z"/><text class="cls-8" transform="translate(188.91 149.81)">How might we<tspan x="12.61" y="14.4">questions</tspan></text><text class="cls-8" transform="translate(378.25 300.83)">Iterate</text><text class="cls-8" transform="translate(680.03 300.83)">MVP</text><rect class="cls-5" x="1.38" y="264.38" width="123.25" height="64.25"/><path class="cls-6" d="M124.25,264.75v63.5H1.75v-63.5h122.5M125,264H1v65H125V264Z"/><text class="cls-8" transform="translate(31.33 293.63)">Wireframes<tspan x="-0.99" y="14.4">&amp; Prototype</tspan></text><text class="cls-8" transform="translate(527.44 299.63)">Hi-fi Designs</text><text class="cls-8" transform="translate(6.45 158.81)">Client Design <tspan class="cls-13" x="76.08" y="0">S</tspan><tspan class="cls-14" x="83.15" y="0">tudio</tspan></text><text class="cls-8" transform="translate(548.15 149.81)">Data<tspan class="cls-15" x="-13.33" y="14.4">S</tspan><tspan x="-6.21" y="14.4">ynthesis</tspan></text><text class="cls-8" transform="translate(216.3 293.63)">User<tspan class="cls-12" x="-6.91" y="14.4">T</tspan><tspan x="-1.1" y="14.4">esting</tspan></text><text class="cls-8" transform="translate(532.99 36.01)">Interviews</text><text class="cls-8" transform="translate(195.01 29.01)">Competitive<tspan x="10.32" y="14.4">Analysis</tspan></text><polygon class="cls-3" points="319.7 295.5 306.7 287.99 306.7 303.01 319.7 295.5"/><polygon class="cls-3" points="486.7 231.5 473.7 223.99 473.7 239.01 486.7 231.5"/><polygon class="cls-3" points="306.7 389.5 319.7 381.99 319.7 397.01 306.7 389.5"/></g></g></svg>