<svg xmlns="http://www.w3.org/2000/svg" viewBox="0 0 791.25 306.88"><defs><style>.cls-1,.cls-6{fill:none;}.cls-1{stroke:gray;}.cls-1,.cls-5,.cls-6{stroke-miterlimit:10;stroke-width:2px;}.cls-2{fill:#d8d8d8;}.cls-3{fill:#b3b3b3;}.cls-4{fill:#e6e6e6;}.cls-5{fill:#fff;}.cls-5,.cls-6{stroke:#ed1c24;stroke-linecap:round;}.cls-7,.cls-9{font-size:12px;}.cls-7{font-family:ProximaNova-Semibold, Proxima Nova;font-weight:600;}.cls-8{font-size:11px;fill:#773365;}.cls-8,.cls-9{font-family:ProximaNova-Regular, Proxima Nova;}.cls-10{letter-spacing:-0.01em;}.cls-11{letter-spacing:-0.02em;}.cls-12{letter-spacing:-0.02em;}.cls-13{letter-spacing:-0.04em;}.cls-14{letter-spacing:-0.04em;}.cls-15{letter-spacing:-0.09em;}.cls-16{letter-spacing:-0.04em;}.cls-17{letter-spacing:0em;}.cls-18{letter-spacing:-0.04em;}.cls-19{letter-spacing:-0.03em;}.cls-20{letter-spacing:0em;}.cls-21{fill:#999;}</style></defs><title>Asset 1</title><g id="Layer_2" data-name="Layer 2"><g id="Layer_1-2" data-name="Layer 1"><line class="cls-1" x1="155.81" y1="126.99" x2="745.96" y2="126.99"/><line class="cls-1" x1="155.81" y1="82.99" x2="205.96" y2="82.99"/><rect class="cls-2" x="0.25" y="18.69" width="162.57" height="207"/><rect class="cls-3" x="0.25" y="18.69" width="162.57" height="21.68"/><rect class="cls-4" x="13.25" y="53.37" width="135.47" height="45.52"/><rect class="cls-4" x="13.25" y="166.08" width="60.69" height="45.52"/><rect class="cls-4" x="88.03" y="166.08" width="60.69" height="45.52"/><circle class="cls-4" cx="40.35" cy="130.32" r="16.26"/><circle class="cls-4" cx="81.53" cy="130.32" r="16.26"/><circle class="cls-4" cx="121.63" cy="130.32" r="16.26"/><rect class="cls-2" x="262.08" y="18.69" width="162.57" height="207"/><rect class="cls-3" x="262.08" y="18.69" width="162.57" height="21.68"/><rect class="cls-4" x="271.84" y="51.2" width="30.35" height="158.23"/><rect class="cls-4" x="313.02" y="53.37" width="30.35" height="45.52"/><rect class="cls-4" x="349.32" y="53.37" width="30.35" height="45.52"/><rect class="cls-4" x="385.63" y="53.37" width="30.35" height="45.52"/><rect class="cls-4" x="313.02" y="107.56" width="30.35" height="45.52"/><rect class="cls-4" x="349.32" y="107.56" width="30.35" height="45.52"/><rect class="cls-4" x="385.63" y="107.56" width="30.35" height="45.52"/><rect class="cls-2" x="508.91" y="18.69" width="162.57" height="207"/><rect class="cls-3" x="508.91" y="18.69" width="162.57" height="21.68"/><rect class="cls-4" x="518.67" y="51.2" width="79.12" height="62.86"/><rect class="cls-4" x="518.67" y="121.65" width="138.72" height="4.34"/><rect class="cls-4" x="518.67" y="128.15" width="138.72" height="4.34"/><rect class="cls-4" x="518.67" y="134.65" width="138.72" height="4.34"/><rect class="cls-4" x="518.67" y="141.15" width="53.1" height="4.34"/><rect class="cls-4" x="518.67" y="153.07" width="138.72" height="4.34"/><rect class="cls-4" x="518.67" y="159.58" width="138.72" height="4.34"/><rect class="cls-4" x="518.67" y="166.08" width="138.72" height="4.34"/><rect class="cls-4" x="518.67" y="172.58" width="53.1" height="4.34"/><rect class="cls-4" x="518.67" y="182.34" width="138.72" height="4.34"/><rect class="cls-4" x="518.67" y="188.84" width="138.72" height="4.34"/><rect class="cls-4" x="518.67" y="195.34" width="138.72" height="4.34"/><rect class="cls-4" x="518.67" y="201.84" width="53.1" height="4.34"/><rect class="cls-4" x="607.54" y="51.2" width="30.35" height="11.92"/><circle class="cls-5" cx="213.75" cy="83.19" r="26.5"/><line class="cls-6" x1="204.35" y1="92.16" x2="223.15" y2="73.36"/><line class="cls-6" x1="204.35" y1="73.36" x2="223.15" y2="92.16"/><circle class="cls-5" cx="763.75" cy="126.19" r="26.5"/><line class="cls-6" x1="754.35" y1="135.16" x2="773.15" y2="116.36"/><line class="cls-6" x1="754.35" y1="116.36" x2="773.15" y2="135.16"/><text class="cls-7" transform="translate(49.26 10)">Homepage</text><text class="cls-8" transform="translate(0.26 254)">THINKING</text><text class="cls-8" transform="translate(262.26 254)">THINKING</text><text class="cls-8" transform="translate(509.26 254)">THINKING</text><text class="cls-7" transform="translate(333.26 10)">Shop</text><text class="cls-7" transform="translate(564.26 10)">Product</text><text class="cls-9" transform="translate(0 274.18)">“Do they sell travel? This loo<tspan class="cls-10" x="148.81" y="0">k</tspan><tspan x="154.91" y="0">s </tspan><tspan x="0" y="14.4">li</tspan><tspan class="cls-11" x="5.4" y="14.4">k</tspan><tspan x="11.29" y="14.4">e wordpres</tspan><tspan class="cls-12" x="70.86" y="14.4">s</tspan><tspan x="76.2" y="14.4">”</tspan></text><text class="cls-9" transform="translate(262 274.18)">“Whats the difference between <tspan x="0" y="14.4">wine</tspan><tspan class="cls-13" x="24.88" y="14.4">s</tspan><tspan x="29.94" y="14.4">? Which one should I click?”</tspan></text><text class="cls-9" transform="translate(509 274.18)">“Why does it cost this muc<tspan class="cls-14" x="138.18" y="0">h</tspan><tspan x="144.37" y="0">?</tspan><tspan class="cls-15" x="0" y="14.4">T</tspan><tspan x="5.7" y="14.4">ast</tspan><tspan class="cls-16" x="21.13" y="14.4">e</tspan><tspan x="27.46" y="14.4">? Food pairin</tspan><tspan class="cls-11" x="95.6" y="14.4">g</tspan><tspan class="cls-17" x="102.21" y="14.4">? </tspan><tspan class="cls-12" x="110.85" y="14.4">R</tspan><tspan x="117.91" y="14.4">ating</tspan><tspan class="cls-18" x="143.96" y="14.4">s</tspan><tspan x="149.03" y="14.4">?</tspan><tspan class="cls-19" x="0" y="28.8">R</tspan><tspan x="6.94" y="28.8">eview</tspan><tspan class="cls-13" x="37.84" y="28.8">s</tspan><tspan x="42.9" y="28.8">? Is this website trustworth</tspan><tspan class="cls-20" x="181.72" y="28.8">y</tspan><tspan x="187.57" y="28.8">?”</tspan></text><rect class="cls-21" x="607.25" y="103.69" width="26" height="8"/></g></g></svg>