<svg xmlns="http://www.w3.org/2000/svg" viewBox="0 0 719 377.87"><defs><style>.cls-1,.cls-15{fill:#ccc;}.cls-1,.cls-15,.cls-2{stroke:#ccc;stroke-miterlimit:10;}.cls-1,.cls-2{stroke-width:2px;}.cls-2{fill:none;}.cls-3{fill:#fecc91;}.cls-4{fill:#e6e6e6;}.cls-5,.cls-7{fill:#353c46;}.cls-6{fill:#ffadc2;}.cls-7{font-size:12px;font-family:ProximaNova-Bold, Proxima Nova;font-weight:700;}.cls-8{letter-spacing:-0.01em;}.cls-9{letter-spacing:-0.02em;}.cls-10{letter-spacing:0em;}.cls-11{letter-spacing:-0.01em;}.cls-12{letter-spacing:0em;}.cls-13{letter-spacing:-0.01em;}.cls-14{letter-spacing:-0.1em;}</style></defs><title>Asset 2</title><g id="Layer_2" data-name="Layer 2"><g id="Layer_1-2" data-name="Layer 1"><line class="cls-1" x1="17.57" y1="32.88" x2="666" y2="32.88"/><line class="cls-1" x1="18.59" y1="155.38" x2="666" y2="155.38"/><line class="cls-1" x1="92" y1="276.07" x2="678" y2="276.07"/><line class="cls-2" x1="229.57" y1="369.22" x2="396" y2="369.22"/><line class="cls-1" x1="62.74" y1="306" x2="62.74" y2="164.94"/><line class="cls-1" x1="229.74" y1="370" x2="229.74" y2="228.94"/><line class="cls-1" x1="395.12" y1="369" x2="395.12" y2="247"/><line class="cls-2" x1="561.28" y1="160.37" x2="561.28" y2="32.94"/><line class="cls-1" x1="665.8" y1="155" x2="665.8" y2="33"/><circle class="cls-3" cx="692.5" cy="276.5" r="26.5"/><rect class="cls-4" x="0.38" y="0.38" width="123.25" height="64.25"/><path class="cls-5" d="M123.25.75v63.5H.75V.75h122.5M124,0H0V65H124V0Z"/><rect class="cls-4" x="166.71" y="0.38" width="123.25" height="64.25"/><path class="cls-5" d="M289.58.75v63.5H167.08V.75h122.5m.75-.75h-124V65h124V0Z"/><rect class="cls-4" x="333.04" y="0.38" width="123.25" height="64.25"/><path class="cls-5" d="M455.92.75v63.5H333.42V.75h122.5m.75-.75h-124V65h124V0Z"/><rect class="cls-4" x="499.38" y="0.38" width="123.25" height="64.25"/><path class="cls-5" d="M622.25.75v63.5H499.75V.75h122.5M623,0H499V65H623V0Z"/><rect class="cls-4" x="166.88" y="122.38" width="123.25" height="64.25"/><path class="cls-5" d="M289.75,122.75v63.5H167.25v-63.5h122.5m.75-.75h-124v65h124V122Z"/><rect class="cls-4" x="0.38" y="122.38" width="123.25" height="64.25"/><path class="cls-5" d="M123.25,122.75v63.5H.75v-63.5h122.5M124,122H0v65H124V122Z"/><rect class="cls-4" x="333.38" y="122.38" width="123.25" height="64.25"/><path class="cls-5" d="M456.25,122.75v63.5H333.75v-63.5h122.5M457,122H333v65H457V122Z"/><rect class="cls-4" x="334.88" y="244.38" width="123.25" height="64.25"/><path class="cls-5" d="M457.75,244.75v63.5H335.25v-63.5h122.5m.75-.75h-124v65h124V244Z"/><rect class="cls-4" x="501.38" y="244.38" width="123.25" height="64.25"/><path class="cls-5" d="M624.25,244.75v63.5H501.75v-63.5h122.5M625,244H501v65H625V244Z"/><rect class="cls-6" x="187.78" y="234.78" width="83.44" height="83.44" transform="translate(-128.3 243.27) rotate(-45)"/><rect class="cls-6" x="519.78" y="112.78" width="83.44" height="83.44" transform="translate(55.21 442.29) rotate(-45)"/><text class="cls-7" transform="translate(33.45 29.01)">Site <tspan class="cls-8" x="24" y="0">A</tspan><tspan x="32.04" y="0">udit</tspan><tspan x="-3.69" y="14.4">&amp; Analytics</tspan></text><text class="cls-7" transform="translate(358.76 36.21)">Assumptions</text><path class="cls-5" d="M367.57,141.81h3.75a2.57,2.57,0,1,1,0,5.13h-2v2.87h-1.71Zm3.52,1.46h-1.81v2.21h1.81a1.09,1.09,0,0,0,1.17-1.1A1.1,1.1,0,0,0,371.09,143.27Z"/><path class="cls-5" d="M375,144h1.52v.79a2.48,2.48,0,0,1,1.85-.93v1.49a2.5,2.5,0,0,0-.42,0,1.92,1.92,0,0,0-1.43.64v3.83H375Z"/><path class="cls-5" d="M379,146.91a3.07,3.07,0,1,1,3.06,3A2.94,2.94,0,0,1,379,146.91Zm4.55,0A1.49,1.49,0,1,0,382,148.6,1.53,1.53,0,0,0,383.52,146.91Z"/><path class="cls-5" d="M386.23,141.81h1.53v2.95a2.21,2.21,0,0,1,1.78-.89c1.48,0,2.57,1.15,2.57,3s-1.1,3-2.57,3a2.26,2.26,0,0,1-1.78-.87v.73h-1.53Zm2.83,6.79a1.7,1.7,0,0,0,0-3.37,1.68,1.68,0,0,0-1.3.67v2A1.69,1.69,0,0,0,389.06,148.6Z"/><path class="cls-5" d="M393.27,141.81h1.52v8h-1.52Z"/><path class="cls-5" d="M398.93,143.87a2.9,2.9,0,0,1,2.9,3.19v.34h-4.3a1.55,1.55,0,0,0,1.66,1.34,2.37,2.37,0,0,0,1.55-.57l.67,1a3.57,3.57,0,0,1-2.38.8,3,3,0,1,1-.1-6.08Zm-1.43,2.5h2.86a1.35,1.35,0,0,0-1.43-1.29A1.39,1.39,0,0,0,397.5,146.37Z"/><path class="cls-5" d="M410.12,146.15c0-.54-.24-.92-.86-.92a1.55,1.55,0,0,0-1.2.67v3.91h-1.54v-3.66c0-.54-.24-.92-.86-.92a1.56,1.56,0,0,0-1.2.68v3.9h-1.52V144h1.52v.75a2.53,2.53,0,0,1,1.9-.9,1.52,1.52,0,0,1,1.6,1.06,2.47,2.47,0,0,1,2-1.06,1.55,1.55,0,0,1,1.71,1.75v4.19h-1.54Z"/><path class="cls-5" d="M423.12,149.81h-1.94c-.17-.16-.38-.37-.6-.6a3.48,3.48,0,0,1-2.18.74c-1.47,0-2.65-.76-2.65-2.31a2.59,2.59,0,0,1,1.73-2.32,3.8,3.8,0,0,1-.53-1.71,2.07,2.07,0,0,1,2.28-1.92c1.14,0,2.11.62,2.11,1.69,0,1.22-1,1.74-2,2.2.24.32.48.62.68.86s.46.55.68.81a5.93,5.93,0,0,0,.73-1.54l1.23.56a10.27,10.27,0,0,1-1.12,1.93C422.06,148.72,422.57,149.25,423.12,149.81Zm-3.36-1.48c-.36-.39-.7-.76-.89-1s-.54-.69-.8-1.06a1.46,1.46,0,0,0-.7,1.22,1.21,1.21,0,0,0,1.24,1.26A1.85,1.85,0,0,0,419.76,148.33Zm-.94-3.62c.68-.31,1.19-.66,1.19-1.25a.65.65,0,0,0-.69-.67.82.82,0,0,0-.84.85A2.38,2.38,0,0,0,418.82,144.71Z"/><path class="cls-5" d="M351.63,162.27a1.8,1.8,0,0,0,1.27.57,1.19,1.19,0,0,0,1.25-1.28v-5.35h1.7v5.37a2.55,2.55,0,0,1-2.82,2.77,2.94,2.94,0,0,1-2.15-.78Z"/><path class="cls-5" d="M357,161.31a3.07,3.07,0,1,1,3.06,3A2.93,2.93,0,0,1,357,161.31Zm4.54,0a1.49,1.49,0,1,0-1.48,1.69A1.53,1.53,0,0,0,361.57,161.31Z"/><path class="cls-5" d="M364.29,156.21h1.52v2.95a2.23,2.23,0,0,1,1.79-.89c1.47,0,2.56,1.15,2.56,3s-1.1,3-2.56,3a2.28,2.28,0,0,1-1.79-.87v.73h-1.52Zm2.83,6.79a1.7,1.7,0,0,0,0-3.37,1.68,1.68,0,0,0-1.31.67v2A1.69,1.69,0,0,0,367.12,163Z"/><path class="cls-5" d="M371.47,162.39a3.37,3.37,0,0,0,2,.79c.66,0,1-.23,1-.59s-.5-.55-1.16-.68c-1-.2-2.28-.44-2.28-1.81,0-1,.85-1.83,2.37-1.83a3.68,3.68,0,0,1,2.33.79l-.6,1.05a2.46,2.46,0,0,0-1.72-.67c-.55,0-.91.2-.91.53s.46.5,1.11.63c1,.19,2.32.45,2.32,1.89,0,1.07-.9,1.86-2.5,1.86a3.86,3.86,0,0,1-2.59-.9Z"/><path class="cls-5" d="M380.42,162.77v-3h-1v-1.33h1v-1.59H382v1.59h1.17v1.33H382v2.61c0,.36.19.64.53.64a.87.87,0,0,0,.53-.17l.32,1.15a1.86,1.86,0,0,1-1.27.37A1.44,1.44,0,0,1,380.42,162.77Z"/><path class="cls-5" d="M383.8,161.31a3.07,3.07,0,1,1,3.06,3A2.93,2.93,0,0,1,383.8,161.31Zm4.54,0a1.49,1.49,0,1,0-1.48,1.69A1.53,1.53,0,0,0,388.34,161.31Z"/><path class="cls-5" d="M394.13,156.21h1.52v2.95a2.24,2.24,0,0,1,1.79-.89c1.48,0,2.57,1.15,2.57,3s-1.11,3-2.57,3a2.3,2.3,0,0,1-1.79-.87v.73h-1.52ZM397,163a1.7,1.7,0,0,0,0-3.37,1.71,1.71,0,0,0-1.31.67v2A1.72,1.72,0,0,0,397,163Z"/><path class="cls-5" d="M403.79,158.27a2.9,2.9,0,0,1,2.9,3.19v.34h-4.3a1.55,1.55,0,0,0,1.66,1.34,2.37,2.37,0,0,0,1.55-.57l.67,1a3.58,3.58,0,0,1-2.39.8,3,3,0,1,1-.09-6.08Zm-1.43,2.5h2.86a1.35,1.35,0,0,0-1.43-1.29A1.39,1.39,0,0,0,402.36,160.77Z"/><path class="cls-5" d="M410.91,156.21h3.15a4,4,0,1,1,0,8h-3.15Zm3.15,6.5a2.4,2.4,0,0,0,2.51-2.5,2.34,2.34,0,0,0-2.51-2.5h-1.45v5Z"/><path class="cls-5" d="M419.11,161.31a3.07,3.07,0,1,1,3.06,3A2.94,2.94,0,0,1,419.11,161.31Zm4.55,0a1.49,1.49,0,1,0-1.49,1.69A1.53,1.53,0,0,0,423.66,161.31Z"/><path class="cls-5" d="M430.28,160.71c0-.81-.42-1.08-1.06-1.08a1.64,1.64,0,0,0-1.32.68v3.9h-1.53v-5.79h1.53v.75a2.66,2.66,0,0,1,2-.9,1.69,1.69,0,0,1,1.89,1.85v4.09h-1.53Z"/><path class="cls-5" d="M436,158.27a2.9,2.9,0,0,1,2.9,3.19v.34h-4.31a1.57,1.57,0,0,0,1.67,1.34,2.37,2.37,0,0,0,1.55-.57l.67,1a3.58,3.58,0,0,1-2.39.8,3,3,0,1,1-.09-6.08Zm-1.43,2.5h2.86a1.35,1.35,0,0,0-1.43-1.29A1.39,1.39,0,0,0,434.52,160.77Z"/><text class="cls-7" transform="translate(188.91 149.81)">How might we<tspan x="12.61" y="14.4">questions</tspan></text><text class="cls-7" transform="translate(378.25 280.83)">Iterate</text><text class="cls-7" transform="translate(681.03 280.83)">MVP</text><rect class="cls-4" x="1.38" y="244.38" width="123.25" height="64.25"/><path class="cls-5" d="M124.25,244.75v63.5H1.75v-63.5h122.5M125,244H1v65H125V244Z"/><text class="cls-7" transform="translate(31.33 273.63)">Wireframes<tspan x="-0.99" y="14.4">&amp; Prototype</tspan></text><path class="cls-5" d="M524.51,265.63h5.66v1.46h-4v1.74h3.87v1.46h-3.87v3.34h-1.7Z"/><path class="cls-5" d="M531.17,266.07a.91.91,0,1,1,1.82,0,.91.91,0,0,1-1.82,0Zm.15,1.77h1.53v5.79h-1.53Z"/><path class="cls-5" d="M538.27,270.13c0-.81-.42-1.08-1.07-1.08a1.64,1.64,0,0,0-1.32.68v3.9h-1.52v-5.79h1.52v.75a2.67,2.67,0,0,1,2-.9,1.68,1.68,0,0,1,1.88,1.85v4.09h-1.52Z"/><path class="cls-5" d="M544.79,273a2.4,2.4,0,0,1-1.84.74,1.93,1.93,0,0,1-2-1.92,1.83,1.83,0,0,1,2-1.84,2.38,2.38,0,0,1,1.84.7v-.8c0-.59-.51-1-1.28-1a2.46,2.46,0,0,0-1.69.68l-.57-1a3.82,3.82,0,0,1,2.53-.91c1.32,0,2.53.53,2.53,2.2v3.74h-1.52Zm0-1.51a1.54,1.54,0,0,0-1.23-.51c-.6,0-1.09.33-1.09.88s.49.85,1.09.85a1.57,1.57,0,0,0,1.23-.5Z"/><path class="cls-5" d="M547.82,265.63h1.53v8h-1.53Z"/><path class="cls-5" d="M550.7,266.07a.92.92,0,0,1,1.83,0,.92.92,0,0,1-1.83,0Zm.16,1.77h1.52v5.79h-1.52Z"/><path class="cls-5" d="M554.05,271.81a3.34,3.34,0,0,0,2,.79c.66,0,1-.23,1-.59s-.5-.55-1.16-.68c-1-.2-2.28-.44-2.28-1.81,0-1,.85-1.83,2.38-1.83a3.65,3.65,0,0,1,2.32.79l-.6,1a2.42,2.42,0,0,0-1.71-.67c-.55,0-.91.2-.91.54s.45.49,1.1.62c1,.19,2.33.45,2.33,1.89,0,1.07-.9,1.86-2.51,1.86a3.86,3.86,0,0,1-2.59-.9Z"/><path class="cls-5" d="M562.25,267.69a2.91,2.91,0,0,1,2.9,3.19v.34h-4.31a1.57,1.57,0,0,0,1.67,1.34,2.39,2.39,0,0,0,1.55-.57l.67,1a3.58,3.58,0,0,1-2.39.8,3,3,0,1,1-.09-6.08Zm-1.43,2.5h2.85a1.34,1.34,0,0,0-1.42-1.29A1.39,1.39,0,0,0,560.82,270.19Z"/><path class="cls-5" d="M569.36,265.63H575v1.46h-3.95v1.74h3.87v1.46h-3.87v3.34h-1.71Z"/><path class="cls-5" d="M576.18,265.63h1.52v8h-1.52Z"/><path class="cls-5" d="M578.84,270.73a3.07,3.07,0,1,1,3.06,3A2.93,2.93,0,0,1,578.84,270.73Zm4.55,0a1.49,1.49,0,1,0-1.49,1.69A1.53,1.53,0,0,0,583.39,270.73Z"/><path class="cls-5" d="M590,269.68l-1.22,3.95h-1.63l-1.76-5.79h1.58l1.08,3.89,1.27-3.89h1.36l1.27,3.89,1.08-3.89h1.58l-1.76,5.79h-1.62Z"/><path class="cls-5" d="M595.49,271.81a3.34,3.34,0,0,0,2,.79c.66,0,1-.23,1-.59s-.5-.55-1.16-.68c-1-.2-2.28-.44-2.28-1.81,0-1,.85-1.83,2.37-1.83a3.66,3.66,0,0,1,2.33.79l-.6,1a2.46,2.46,0,0,0-1.72-.67c-.55,0-.91.2-.91.54s.46.49,1.11.62c1,.19,2.32.45,2.32,1.89,0,1.07-.9,1.86-2.5,1.86a3.86,3.86,0,0,1-2.59-.9Z"/><path class="cls-5" d="M540.34,288h-2l-.6-.6a3.49,3.49,0,0,1-2.17.74c-1.47,0-2.65-.76-2.65-2.31a2.58,2.58,0,0,1,1.73-2.32,3.8,3.8,0,0,1-.53-1.71,2.07,2.07,0,0,1,2.28-1.92c1.14,0,2.11.62,2.11,1.69s-1,1.74-2,2.19a10.22,10.22,0,0,0,.68.87c.23.29.45.55.68.81a5.93,5.93,0,0,0,.73-1.54l1.23.56a10.27,10.27,0,0,1-1.12,1.93C539.28,286.94,539.79,287.47,540.34,288ZM537,286.55c-.36-.39-.7-.76-.89-1s-.54-.69-.8-1.06a1.46,1.46,0,0,0-.7,1.22,1.21,1.21,0,0,0,1.24,1.26A1.85,1.85,0,0,0,537,286.55Zm-.94-3.62c.67-.31,1.19-.66,1.19-1.25a.65.65,0,0,0-.69-.67.82.82,0,0,0-.84.85A2.38,2.38,0,0,0,536,282.93Z"/><path class="cls-5" d="M544.7,285.61a3.53,3.53,0,0,0,2.54,1.08c.93,0,1.39-.45,1.39-.9,0-.6-.7-.81-1.62-1-1.31-.3-3-.66-3-2.45,0-1.33,1.15-2.41,3-2.41a4.42,4.42,0,0,1,3.12,1.12l-.95,1.24a3.41,3.41,0,0,0-2.29-.87c-.77,0-1.18.33-1.18.81s.68.71,1.6.93c1.32.3,3,.69,3,2.47,0,1.46-1.05,2.56-3.21,2.56a4.6,4.6,0,0,1-3.39-1.27Z"/><path class="cls-5" d="M551.32,280.47a.92.92,0,0,1,.91-.91.91.91,0,1,1-.91.91Zm.16,1.77H553V288h-1.52Z"/><path class="cls-5" d="M554.81,286.59v-3h-1v-1.33h1v-1.59h1.54v1.59h1.17v1.33h-1.17v2.61c0,.36.19.64.53.64a.84.84,0,0,0,.52-.17l.33,1.15a1.91,1.91,0,0,1-1.27.37A1.45,1.45,0,0,1,554.81,286.59Z"/><path class="cls-5" d="M561.2,282.09a2.91,2.91,0,0,1,2.9,3.19v.34h-4.31a1.57,1.57,0,0,0,1.67,1.34,2.39,2.39,0,0,0,1.55-.57l.67,1a3.58,3.58,0,0,1-2.39.8,3,3,0,1,1-.09-6.08Zm-1.43,2.5h2.85a1.34,1.34,0,0,0-1.42-1.29A1.39,1.39,0,0,0,559.77,284.59Z"/><path class="cls-5" d="M575.27,282.27,573,288h-.74L570,282.27V288h-1.71v-8h2.39l1.94,5,1.94-5H577v8h-1.71Z"/><path class="cls-5" d="M582,287.43a2.36,2.36,0,0,1-1.83.74,1.93,1.93,0,0,1-2-1.92,1.84,1.84,0,0,1,2-1.84,2.34,2.34,0,0,1,1.83.7v-.8c0-.59-.5-1-1.27-1a2.46,2.46,0,0,0-1.69.68l-.57-1a3.8,3.8,0,0,1,2.53-.91c1.32,0,2.53.53,2.53,2.2V288H582Zm0-1.51a1.51,1.51,0,0,0-1.22-.51c-.6,0-1.09.33-1.09.88s.49.85,1.09.85a1.53,1.53,0,0,0,1.22-.5Z"/><path class="cls-5" d="M585.05,290.24v-8h1.53V283a2.22,2.22,0,0,1,1.78-.88c1.49,0,2.57,1.11,2.57,3s-1.08,3-2.57,3a2.21,2.21,0,0,1-1.78-.88v2.95Zm2.83-6.79a1.7,1.7,0,0,0-1.3.66v2.05a1.73,1.73,0,0,0,1.3.66,1.7,1.7,0,0,0,0-3.37Z"/><text class="cls-7" transform="translate(37.32 149.81)">S<tspan class="cls-9" x="7.2" y="0">k</tspan><tspan class="cls-10" x="13.37" y="0">etches</tspan><tspan x="-13.36" y="14.4">Design </tspan><tspan class="cls-11" x="27.7" y="14.4">S</tspan><tspan class="cls-12" x="34.76" y="14.4">tudio</tspan></text><text class="cls-7" transform="translate(548.15 149.81)">Data<tspan class="cls-13" x="-13.33" y="14.4">S</tspan><tspan x="-6.21" y="14.4">ynthesis</tspan></text><text class="cls-7" transform="translate(216.3 273.63)">User<tspan class="cls-14" x="-6.91" y="14.4">T</tspan><tspan x="-1.1" y="14.4">esting</tspan></text><text class="cls-7" transform="translate(534.03 29.01)">Surveys &amp;<tspan x="-1.03" y="14.4">Interviews</tspan></text><text class="cls-7" transform="translate(195.01 29.01)">Competitive<tspan x="10.32" y="14.4">Analysis</tspan></text><polygon class="cls-15" points="319.7 275.5 306.7 267.99 306.7 283.01 319.7 275.5"/><polygon class="cls-15" points="306.7 369.5 319.7 361.99 319.7 377.01 306.7 369.5"/><polygon class="cls-15" points="666.2 93 673.71 80 658.7 80 666.2 93"/><polygon class="cls-15" points="561.2 74 568.71 87 553.7 87 561.2 74"/></g></g></svg>