<svg id="Layer_1" data-name="Layer 1" xmlns="http://www.w3.org/2000/svg" viewBox="0 0 960 768"><defs><style>.cls-1,.cls-21{fill:none;stroke-miterlimit:10;stroke-width:2px;}.cls-1{stroke:gray;}.cls-2{fill:#fff;}.cls-3{fill:#d8d8d8;}.cls-4{fill:#b3b3b3;}.cls-5{fill:#e6e6e6;}.cls-6,.cls-9{font-size:12px;}.cls-6{font-family:ProximaNova-Semibold, Proxima Nova;font-weight:600;}.cls-7{font-size:11px;fill:#773365;}.cls-7,.cls-9{font-family:ProximaNova-Regular, Proxima Nova;}.cls-8{letter-spacing:-0.01em;}.cls-10{letter-spacing:-0.01em;}.cls-11{letter-spacing:-0.07em;}.cls-12{letter-spacing:-0.01em;}.cls-13{letter-spacing:-0.01em;}.cls-14{letter-spacing:-0.02em;}.cls-15{letter-spacing:-0.03em;}.cls-16{letter-spacing:-0.03em;}.cls-17{letter-spacing:-0.03em;}.cls-18{letter-spacing:-0.01em;}.cls-19{fill:#999;}.cls-20{fill:#22b573;}.cls-21{stroke:#f2f2f2;stroke-linecap:round;}</style></defs><title>FLOWS</title><path class="cls-1" d="M810,161h30s32-2,35,23V533s0,31-54,23"/><rect class="cls-2" x="837" y="364" width="70" height="34"/><line class="cls-1" x1="89.57" y1="161.3" x2="799.71" y2="161.3"/><line class="cls-1" x1="93.57" y1="556.3" x2="823.71" y2="556.3"/><rect class="cls-3" x="144" y="53" width="162.57" height="207"/><rect class="cls-4" x="144" y="53" width="162.57" height="21.68"/><rect class="cls-5" x="157.01" y="87.68" width="135.47" height="45.52"/><rect class="cls-5" x="157.01" y="200.39" width="60.69" height="45.52"/><rect class="cls-5" x="231.79" y="200.39" width="60.69" height="45.52"/><circle class="cls-5" cx="184.1" cy="164.63" r="16.26"/><circle class="cls-5" cx="225.28" cy="164.63" r="16.26"/><circle class="cls-5" cx="265.38" cy="164.63" r="16.26"/><rect class="cls-3" x="405.83" y="53" width="162.57" height="207"/><rect class="cls-4" x="405.83" y="53" width="162.57" height="21.68"/><rect class="cls-5" x="415.59" y="85.51" width="30.35" height="158.23"/><rect class="cls-5" x="456.77" y="87.68" width="30.35" height="45.52"/><rect class="cls-5" x="493.08" y="87.68" width="30.35" height="45.52"/><rect class="cls-5" x="529.38" y="87.68" width="30.35" height="45.52"/><rect class="cls-5" x="456.77" y="141.87" width="30.35" height="45.52"/><rect class="cls-5" x="493.08" y="141.87" width="30.35" height="45.52"/><rect class="cls-5" x="529.38" y="141.87" width="30.35" height="45.52"/><rect class="cls-3" x="652.66" y="53" width="162.57" height="207"/><rect class="cls-4" x="652.66" y="53" width="162.57" height="21.68"/><rect class="cls-5" x="662.42" y="85.51" width="79.12" height="62.86"/><rect class="cls-5" x="662.42" y="155.96" width="138.72" height="4.34"/><rect class="cls-5" x="662.42" y="162.46" width="138.72" height="4.34"/><rect class="cls-5" x="662.42" y="168.96" width="138.72" height="4.34"/><rect class="cls-5" x="662.42" y="175.47" width="53.1" height="4.34"/><rect class="cls-5" x="662.42" y="187.39" width="138.72" height="4.34"/><rect class="cls-5" x="662.42" y="193.89" width="138.72" height="4.34"/><rect class="cls-5" x="662.42" y="200.39" width="138.72" height="4.34"/><rect class="cls-5" x="662.42" y="206.9" width="53.1" height="4.34"/><rect class="cls-5" x="662.42" y="216.65" width="138.72" height="4.34"/><rect class="cls-5" x="662.42" y="223.15" width="138.72" height="4.34"/><rect class="cls-5" x="662.42" y="229.65" width="138.72" height="4.34"/><rect class="cls-5" x="662.42" y="236.16" width="53.1" height="4.34"/><rect class="cls-5" x="751.29" y="85.51" width="30.35" height="11.92"/><text class="cls-6" transform="translate(193.01 44.31)">Homepage</text><text class="cls-7" transform="translate(144.01 288.31)">OPPO<tspan class="cls-8" x="29.74" y="0">R</tspan><tspan x="36.32" y="0">TUNITIES</tspan></text><text class="cls-9" transform="translate(55.55 211.31)"><tspan class="cls-10">S</tspan><tspan class="cls-11" x="6.96" y="0">T</tspan><tspan x="13" y="0">A</tspan><tspan class="cls-12" x="20.89" y="0">R</tspan><tspan x="28.07" y="0">T</tspan><tspan x="3.03" y="14.4">WITH</tspan><tspan x="-0.71" y="28.8">TRU</tspan><tspan class="cls-13" x="21.82" y="28.8">S</tspan><tspan x="28.78" y="28.8">T</tspan></text><text class="cls-7" transform="translate(406.01 288.31)">OPPO<tspan class="cls-8" x="29.74" y="0">R</tspan><tspan x="36.32" y="0">TUNITIES</tspan></text><text class="cls-7" transform="translate(653.01 288.31)">OPPO<tspan class="cls-8" x="29.74" y="0">R</tspan><tspan x="36.32" y="0">TUNITIES</tspan></text><text class="cls-6" transform="translate(457.01 44.31)">Category</text><text class="cls-6" transform="translate(708.01 44.31)">Product</text><text class="cls-6" transform="translate(848.01 384.31)">Chec<tspan class="cls-14" x="27.65" y="0">k</tspan><tspan x="33.66" y="0">out</tspan></text><text class="cls-6" transform="translate(690.01 432.31)">Shipping Address</text><text class="cls-9" transform="translate(143.75 308.5)">Clear USPs:<tspan x="0" y="14.4">Official merch</tspan><tspan x="0" y="28.8">Contributes to chart</tspan><tspan x="0" y="43.2">International Shipping</tspan></text><text class="cls-9" transform="translate(405.75 308.5)">Organise by latest<tspan x="0" y="14.4">Filter search options</tspan></text><text class="cls-9" transform="translate(652.75 308.5)">Generate <tspan class="cls-15" x="52.34" y="0">e</tspan><tspan class="cls-16" x="58.71" y="0">x</tspan><tspan x="64.17" y="0">citement</tspan><tspan x="0" y="14.4">1. Whats included</tspan><tspan x="0" y="28.8">2. Contribute to charts - feel good</tspan><tspan x="0" y="43.2">3. Shipping options and packaging</tspan><tspan x="0" y="57.6">4. </tspan><tspan class="cls-17" x="12.55" y="57.6">R</tspan><tspan x="19.49" y="57.6">eturn policies</tspan><tspan x="0" y="72"> </tspan></text><text class="cls-7" transform="translate(663.01 670.31)">OPPO<tspan class="cls-8" x="29.74" y="0">R</tspan><tspan x="36.32" y="0">TUNITIES</tspan></text><text class="cls-9" transform="translate(662.75 690.5)"><tspan class="cls-17">R</tspan><tspan x="6.94" y="0">educe fields</tspan><tspan class="cls-18" x="0" y="14.4">A</tspan><tspan x="7.75" y="14.4">uto fill to reduce errors</tspan><tspan x="0" y="28.8">Save to account</tspan></text><text class="cls-7" transform="translate(402.01 670.31)">OPPO<tspan class="cls-8" x="29.74" y="0">R</tspan><tspan x="36.32" y="0">TUNITIES</tspan></text><text class="cls-9" transform="translate(401.75 690.5)">Filter options by country<tspan x="0" y="14.4">Filter out unavailable options</tspan><tspan x="0" y="28.8">Then offer choice</tspan></text><text class="cls-7" transform="translate(140.01 673.31)">OPPO<tspan class="cls-8" x="29.74" y="0">R</tspan><tspan x="36.32" y="0">TUNITIES</tspan></text><text class="cls-9" transform="translate(139.75 693.5)">Summary for assurance<tspan x="0" y="14.4">Thankyou group image</tspan></text><rect class="cls-3" x="660.66" y="439" width="162.57" height="207"/><rect class="cls-4" x="660.66" y="439" width="162.57" height="21.68"/><rect class="cls-5" x="670.42" y="471.51" width="138.58" height="31.49"/><rect class="cls-5" x="670.42" y="514.96" width="35.58" height="4.04"/><rect class="cls-5" x="713.42" y="514.96" width="86.58" height="4.04"/><rect class="cls-5" x="713.42" y="521.96" width="86.58" height="4.04"/><rect class="cls-5" x="713.42" y="528.96" width="86.58" height="4.04"/><rect class="cls-5" x="670.42" y="537.96" width="35.58" height="4.04"/><rect class="cls-5" x="713.42" y="537.96" width="86.58" height="4.04"/><rect class="cls-5" x="713.42" y="544.96" width="86.58" height="4.04"/><rect class="cls-5" x="713.42" y="551.96" width="86.58" height="4.04"/><rect class="cls-19" x="781" y="568" width="26" height="8"/><text class="cls-6" transform="translate(431.01 433.31)">Shipping Options</text><rect class="cls-3" x="401.66" y="440" width="162.57" height="207"/><rect class="cls-4" x="401.66" y="440" width="162.57" height="21.68"/><rect class="cls-5" x="411.42" y="472.51" width="138.58" height="31.49"/><rect class="cls-5" x="411.42" y="515.96" width="138.58" height="8.04"/><text class="cls-6" transform="translate(160.01 434.31)">Thankyou for purchase</text><rect class="cls-3" x="140.66" y="441" width="162.57" height="207"/><rect class="cls-4" x="140.66" y="441" width="162.57" height="21.68"/><rect class="cls-5" x="150.42" y="473.51" width="138.58" height="31.49"/><rect class="cls-5" x="150.42" y="516.96" width="138.58" height="8.04"/><rect class="cls-5" x="411.42" y="526.96" width="138.58" height="8.04"/><rect class="cls-5" x="411.42" y="537.96" width="138.58" height="8.04"/><rect class="cls-5" x="411.42" y="548.96" width="138.58" height="8.04"/><rect class="cls-5" x="411.42" y="559.96" width="138.58" height="8.04"/><rect class="cls-5" x="411.42" y="570.96" width="138.58" height="8.04"/><rect class="cls-19" x="522" y="609" width="26" height="8"/><rect class="cls-19" x="751" y="138" width="26" height="8"/><circle class="cls-20" cx="74.5" cy="162.5" r="26.5"/><polyline class="cls-21" points="61 164.71 71.06 174 85 153.1"/><text class="cls-9" transform="translate(55.15 604.31)">END<tspan x="-1.33" y="14.4">FEEL</tspan><tspan x="-5.8" y="28.8">GOOD</tspan></text><circle class="cls-20" cx="69.5" cy="555.5" r="26.5"/><polyline class="cls-21" points="56 557.71 66.06 567 80 546.1"/></svg>