<svg id="Layer_1" data-name="Layer 1" xmlns="http://www.w3.org/2000/svg" viewBox="0 0 960 768"><defs><style>.cls-1,.cls-6{fill:none;stroke-miterlimit:10;stroke-width:2px;}.cls-1{stroke:gray;}.cls-2{fill:#fff;}.cls-3{fill:#d8d8d8;}.cls-4{fill:#b3b3b3;}.cls-5{fill:#e6e6e6;}.cls-6{stroke:#ed1c24;stroke-linecap:round;}.cls-10,.cls-7{font-size:12px;}.cls-7{font-family:ProximaNova-Semibold, Proxima Nova;font-weight:600;}.cls-8{font-size:11px;fill:#773365;}.cls-10,.cls-8{font-family:ProximaNova-Regular, Proxima Nova;}.cls-9{letter-spacing:-0.02em;}.cls-11{letter-spacing:0em;}.cls-12{letter-spacing:-0.04em;}.cls-13{letter-spacing:-0.04em;}.cls-14{letter-spacing:-0.04em;}.cls-15{letter-spacing:-0.04em;}.cls-16{letter-spacing:-0.03em;}.cls-17{letter-spacing:0em;}.cls-18{letter-spacing:-0.02em;}.cls-19{letter-spacing:0em;}.cls-20{letter-spacing:-0.04em;}.cls-21{fill:#999;}</style></defs><title>FLOWS</title><path class="cls-1" d="M779,161h20s32-2,35,23V533s0,31-54,23"/><rect class="cls-2" x="796" y="364" width="70" height="34"/><line class="cls-1" x1="258.57" y1="161.3" x2="848.71" y2="161.3"/><line class="cls-1" x1="292.57" y1="556.3" x2="782.71" y2="556.3"/><rect class="cls-3" x="103" y="53" width="162.57" height="207"/><rect class="cls-4" x="103" y="53" width="162.57" height="21.68"/><rect class="cls-5" x="116.01" y="87.68" width="135.47" height="45.52"/><rect class="cls-5" x="116.01" y="200.39" width="60.69" height="45.52"/><rect class="cls-5" x="190.79" y="200.39" width="60.69" height="45.52"/><circle class="cls-5" cx="143.1" cy="164.63" r="16.26"/><circle class="cls-5" cx="184.28" cy="164.63" r="16.26"/><circle class="cls-5" cx="224.38" cy="164.63" r="16.26"/><rect class="cls-3" x="364.83" y="53" width="162.57" height="207"/><rect class="cls-4" x="364.83" y="53" width="162.57" height="21.68"/><rect class="cls-5" x="374.59" y="85.51" width="30.35" height="158.23"/><rect class="cls-5" x="415.77" y="87.68" width="30.35" height="45.52"/><rect class="cls-5" x="452.08" y="87.68" width="30.35" height="45.52"/><rect class="cls-5" x="488.38" y="87.68" width="30.35" height="45.52"/><rect class="cls-5" x="415.77" y="141.87" width="30.35" height="45.52"/><rect class="cls-5" x="452.08" y="141.87" width="30.35" height="45.52"/><rect class="cls-5" x="488.38" y="141.87" width="30.35" height="45.52"/><rect class="cls-3" x="611.66" y="53" width="162.57" height="207"/><rect class="cls-4" x="611.66" y="53" width="162.57" height="21.68"/><rect class="cls-5" x="621.42" y="85.51" width="79.12" height="62.86"/><rect class="cls-5" x="621.42" y="155.96" width="138.72" height="4.34"/><rect class="cls-5" x="621.42" y="162.46" width="138.72" height="4.34"/><rect class="cls-5" x="621.42" y="168.96" width="138.72" height="4.34"/><rect class="cls-5" x="621.42" y="175.47" width="53.1" height="4.34"/><rect class="cls-5" x="621.42" y="187.39" width="138.72" height="4.34"/><rect class="cls-5" x="621.42" y="193.89" width="138.72" height="4.34"/><rect class="cls-5" x="621.42" y="200.39" width="138.72" height="4.34"/><rect class="cls-5" x="621.42" y="206.9" width="53.1" height="4.34"/><rect class="cls-5" x="621.42" y="216.65" width="138.72" height="4.34"/><rect class="cls-5" x="621.42" y="223.15" width="138.72" height="4.34"/><rect class="cls-5" x="621.42" y="229.65" width="138.72" height="4.34"/><rect class="cls-5" x="621.42" y="236.16" width="53.1" height="4.34"/><rect class="cls-5" x="710.29" y="85.51" width="30.35" height="11.92"/><circle class="cls-6" cx="875.5" cy="159.5" r="26.5"/><line class="cls-6" x1="866.1" y1="168.48" x2="884.9" y2="149.67"/><line class="cls-6" x1="866.1" y1="149.67" x2="884.9" y2="168.48"/><circle class="cls-6" cx="265.5" cy="556.5" r="26.5"/><line class="cls-6" x1="256.1" y1="565.48" x2="274.9" y2="546.67"/><line class="cls-6" x1="256.1" y1="546.67" x2="274.9" y2="565.48"/><text class="cls-7" transform="translate(152.01 44.31)">Homepage</text><text class="cls-8" transform="translate(103.01 288.31)">THINKING</text><text class="cls-8" transform="translate(365.01 288.31)">THINKING</text><text class="cls-8" transform="translate(612.01 288.31)">THINKING</text><text class="cls-7" transform="translate(416.01 44.31)">Category</text><text class="cls-7" transform="translate(667.01 44.31)">Product</text><text class="cls-7" transform="translate(807.01 384.31)">Chec<tspan class="cls-9" x="27.65" y="0">k</tspan><tspan x="33.66" y="0">out</tspan></text><text class="cls-7" transform="translate(649.01 432.31)">Shipping Address</text><text class="cls-10" transform="translate(102.75 308.5)">“Do they have what I need?<tspan x="0" y="14.4">Is it trustworth</tspan><tspan class="cls-11" x="73.86" y="14.4">y</tspan><tspan x="79.7" y="14.4">?”</tspan></text><text class="cls-10" transform="translate(364.75 308.5)">“Where is the most recent <tspan x="0" y="14.4">albu</tspan><tspan class="cls-12" x="22.54" y="14.4">m</tspan><tspan x="31.8" y="14.4">? What version is it?”</tspan></text><text class="cls-10" transform="translate(611.75 308.5)">“Shipping cost and tim<tspan class="cls-13" x="117.97" y="0">e</tspan><tspan x="124.29" y="0">?</tspan><tspan x="0" y="14.4">Is this website saf</tspan><tspan class="cls-14" x="92.49" y="14.4">e</tspan><tspan x="98.82" y="14.4">?</tspan><tspan x="0" y="28.8">Why so much focus on return</tspan><tspan class="cls-15" x="153.19" y="28.8">s</tspan><tspan x="158.25" y="28.8">?”</tspan></text><text class="cls-8" transform="translate(622.01 670.31)">THINKING</text><text class="cls-10" transform="translate(621.75 690.5)">“Why is there so much warning<tspan x="0" y="14.4">t</tspan><tspan class="cls-16" x="3.53" y="14.4">e</tspan><tspan class="cls-17" x="9.9" y="14.4">xt? Confusing field</tspan><tspan class="cls-18" x="106.82" y="14.4">s</tspan><tspan class="cls-19" x="112.16" y="14.4">”</tspan></text><text class="cls-8" transform="translate(361.01 670.31)">THINKING</text><text class="cls-10" transform="translate(360.75 690.5)">“Whats the difference between<tspan x="0" y="14.4">all these option</tspan><tspan class="cls-20" x="80.61" y="14.4">s</tspan><tspan x="85.68" y="14.4">? Is it saf</tspan><tspan class="cls-12" x="130.49" y="14.4">e</tspan><tspan x="136.81" y="14.4">?</tspan><tspan x="0" y="28.8">Will my item arriv</tspan><tspan class="cls-14" x="89.06" y="28.8">e</tspan><tspan x="95.39" y="28.8">?”</tspan></text><rect class="cls-3" x="619.66" y="439" width="162.57" height="207"/><rect class="cls-4" x="619.66" y="439" width="162.57" height="21.68"/><rect class="cls-5" x="629.42" y="471.51" width="138.58" height="31.49"/><rect class="cls-5" x="629.42" y="514.96" width="35.58" height="4.04"/><rect class="cls-5" x="672.42" y="514.96" width="86.58" height="4.04"/><rect class="cls-5" x="672.42" y="521.96" width="86.58" height="4.04"/><rect class="cls-5" x="672.42" y="528.96" width="86.58" height="4.04"/><rect class="cls-5" x="629.42" y="537.96" width="35.58" height="4.04"/><rect class="cls-5" x="672.42" y="537.96" width="86.58" height="4.04"/><rect class="cls-5" x="672.42" y="544.96" width="86.58" height="4.04"/><rect class="cls-5" x="672.42" y="551.96" width="86.58" height="4.04"/><rect class="cls-21" x="740" y="568" width="26" height="8"/><text class="cls-7" transform="translate(390.01 433.31)">Shipping Options</text><rect class="cls-3" x="360.66" y="440" width="162.57" height="207"/><rect class="cls-4" x="360.66" y="440" width="162.57" height="21.68"/><rect class="cls-5" x="370.42" y="472.51" width="138.58" height="31.49"/><rect class="cls-5" x="370.42" y="515.96" width="138.58" height="8.04"/><rect class="cls-5" x="370.42" y="526.96" width="138.58" height="8.04"/><rect class="cls-5" x="370.42" y="537.96" width="138.58" height="8.04"/><rect class="cls-5" x="370.42" y="548.96" width="138.58" height="8.04"/><rect class="cls-5" x="370.42" y="559.96" width="138.58" height="8.04"/><rect class="cls-5" x="370.42" y="570.96" width="138.58" height="8.04"/><rect class="cls-21" x="481" y="609" width="26" height="8"/><rect class="cls-21" x="710" y="138" width="26" height="8"/></svg>